Hubballi-Regular-wire-LatinOnly-Decomp.ufo
<glyph name="exclam" format="1">
  <advance width="327"/>
  <unicode hex="0021"/>
  <outline>
    <contour>
      <point x="162" y="265" type="move"/>
      <point x="169" y="543" type="line"/>
    </contour>
    <contour>
      <point x="162" y="76" type="curve" smooth="yes"/>
      <point x="147" y="76"/>
      <point x="142" y="61"/>
      <point x="142" y="47" type="curve" smooth="yes"/>
      <point x="142" y="30"/>
      <point x="151" y="18"/>
      <point x="163" y="18" type="curve" smooth="yes"/>
      <point x="177" y="18"/>
      <point x="183" y="30"/>
      <point x="183" y="47" type="curve" smooth="yes"/>
      <point x="183" y="61"/>
      <point x="176" y="76"/>
    </contour>
  </outline>
</glyph>
<glyph name="parenright" format="1">
  <advance width="335"/>
  <unicode hex="0029"/>
  <outline>
    <contour>
      <point x="102" y="603" type="move"/>
      <point x="177" y="520"/>
      <point x="238" y="393"/>
      <point x="238" y="259" type="curve" smooth="yes"/>
      <point x="238" y="127"/>
      <point x="181" y="6"/>
      <point x="102" y="-76" type="curve"/>
    </contour>
  </outline>
</glyph>
<glyph name="colon" format="1">
  <advance width="251"/>
  <unicode hex="003A"/>
  <outline>
    <contour>
      <point x="125" y="76" type="curve" smooth="yes"/>
      <point x="110" y="76"/>
      <point x="105" y="61"/>
      <point x="105" y="47" type="curve" smooth="yes"/>
      <point x="105" y="30"/>
      <point x="114" y="18"/>
      <point x="126" y="18" type="curve" smooth="yes"/>
      <point x="140" y="18"/>
      <point x="146" y="30"/>
      <point x="146" y="47" type="curve" smooth="yes"/>
      <point x="146" y="61"/>
      <point x="139" y="76"/>
    </contour>
    <contour>
      <point x="125" y="346" type="curve" smooth="yes"/>
      <point x="110" y="346"/>
      <point x="105" y="331"/>
      <point x="105" y="317" type="curve" smooth="yes"/>
      <point x="105" y="300"/>
      <point x="114" y="288"/>
      <point x="126" y="288" type="curve" smooth="yes"/>
      <point x="140" y="288"/>
      <point x="146" y="300"/>
      <point x="146" y="317" type="curve" smooth="yes"/>
      <point x="146" y="331"/>
      <point x="139" y="346"/>
    </contour>
  </outline>
</glyph>
<glyph name="semicolon" format="1">
  <advance width="230"/>
  <unicode hex="003B"/>
  <outline>
    <contour>
      <point x="110" y="77" type="move"/>
      <point x="114" y="65"/>
      <point x="116" y="47"/>
      <point x="116" y="28" type="curve" smooth="yes"/>
      <point x="116" y="-18"/>
      <point x="100" y="-64"/>
      <point x="74" y="-99" type="curve"/>
    </contour>
    <contour>
      <point x="113" y="346" type="curve" smooth="yes"/>
      <point x="98" y="346"/>
      <point x="93" y="331"/>
      <point x="93" y="317" type="curve" smooth="yes"/>
      <point x="93" y="300"/>
      <point x="102" y="288"/>
      <point x="114" y="288" type="curve" smooth="yes"/>
      <point x="128" y="288"/>
      <point x="134" y="300"/>
      <point x="134" y="317" type="curve" smooth="yes"/>
      <point x="134" y="331"/>
      <point x="127" y="346"/>
    </contour>
  </outline>
</glyph>
<glyph name="question" format="1">
  <advance width="371"/>
  <unicode hex="003F"/>
  <outline>
    <contour>
      <point x="69" y="482" type="move"/>
      <point x="104" y="504"/>
      <point x="138" y="517"/>
      <point x="194" y="517" type="curve" smooth="yes"/>
      <point x="274" y="517"/>
      <point x="317" y="469"/>
      <point x="317" y="415" type="curve" smooth="yes"/>
      <point x="317" y="365"/>
      <point x="279" y="329"/>
      <point x="230" y="304" type="curve" smooth="yes"/>
      <point x="176" y="276"/>
      <point x="161" y="256"/>
      <point x="158" y="205" type="curve"/>
    </contour>
    <contour>
      <point x="163" y="76" type="curve" smooth="yes"/>
      <point x="148" y="76"/>
      <point x="143" y="61"/>
      <point x="143" y="47" type="curve" smooth="yes"/>
      <point x="143" y="30"/>
      <point x="152" y="18"/>
      <point x="164" y="18" type="curve" smooth="yes"/>
      <point x="178" y="18"/>
      <point x="184" y="30"/>
      <point x="184" y="47" type="curve" smooth="yes"/>
      <point x="184" y="61"/>
      <point x="177" y="76"/>
    </contour>
  </outline>
</glyph>
<glyph name="braceright" format="1">
  <advance width="412"/>
  <unicode hex="007D"/>
  <outline>
    <contour>
      <point x="102" y="603" type="move"/>
      <point x="122" y="603" type="line" smooth="yes"/>
      <point x="220" y="603"/>
      <point x="280" y="552"/>
      <point x="280" y="495" type="curve" smooth="yes"/>
      <point x="280" y="430"/>
      <point x="213" y="395"/>
      <point x="213" y="337" type="curve" smooth="yes"/>
      <point x="213" y="301"/>
      <point x="247" y="276"/>
      <point x="315" y="266" type="curve"/>
      <point x="315" y="260" type="line"/>
      <point x="247" y="250"/>
      <point x="213" y="225"/>
      <point x="213" y="189" type="curve" smooth="yes"/>
      <point x="213" y="131"/>
      <point x="280" y="96"/>
      <point x="280" y="31" type="curve" smooth="yes"/>
      <point x="280" y="-26"/>
      <point x="220" y="-77"/>
      <point x="122" y="-77" type="curve" smooth="yes"/>
      <point x="102" y="-77" type="line"/>
    </contour>
  </outline>
</glyph>
<glyph name="exclamdown" format="1">
  <advance width="327"/>
  <unicode hex="00A1"/>
  <outline>
    <contour>
      <point x="162" y="290" type="move"/>
      <point x="169" y="12" type="line"/>
    </contour>
    <contour>
      <point x="162" y="479" type="curve" smooth="yes"/>
      <point x="147" y="479"/>
      <point x="142" y="494"/>
      <point x="142" y="508" type="curve" smooth="yes"/>
      <point x="142" y="525"/>
      <point x="151" y="537"/>
      <point x="163" y="537" type="curve" smooth="yes"/>
      <point x="177" y="537"/>
      <point x="183" y="525"/>
      <point x="183" y="508" type="curve" smooth="yes"/>
      <point x="183" y="494"/>
      <point x="176" y="479"/>
    </contour>
  </outline>
</glyph>
<glyph name="questiondown" format="1">
  <advance width="371"/>
  <unicode hex="00BF"/>
  <outline>
    <contour>
      <point x="312" y="69" type="move"/>
      <point x="277" y="47"/>
      <point x="243" y="34"/>
      <point x="187" y="34" type="curve" smooth="yes"/>
      <point x="107" y="34"/>
      <point x="64" y="82"/>
      <point x="64" y="136" type="curve" smooth="yes"/>
      <point x="64" y="186"/>
      <point x="102" y="222"/>
      <point x="151" y="247" type="curve" smooth="yes"/>
      <point x="205" y="275"/>
      <point x="220" y="295"/>
      <point x="223" y="346" type="curve"/>
    </contour>
    <contour>
      <point x="218" y="475" type="curve" smooth="yes"/>
      <point x="233" y="475"/>
      <point x="238" y="490"/>
      <point x="238" y="504" type="curve" smooth="yes"/>
      <point x="238" y="521"/>
      <point x="229" y="533"/>
      <point x="217" y="533" type="curve" smooth="yes"/>
      <point x="203" y="533"/>
      <point x="197" y="521"/>
      <point x="197" y="504" type="curve" smooth="yes"/>
      <point x="197" y="490"/>
      <point x="204" y="475"/>
    </contour>
  </outline>
</glyph>
<glyph name="Agrave" format="1">
  <advance width="580"/>
  <unicode hex="00C0"/>
  <outline>
    <contour>
      <point x="281" y="517" type="move"/>
      <point x="213" y="364"/>
      <point x="118" y="149"/>
      <point x="73" y="23" type="curve"/>
    </contour>
    <contour>
      <point x="287" y="517" type="move"/>
      <point x="359" y="363"/>
      <point x="457" y="146"/>
      <point x="505" y="23" type="curve"/>
    </contour>
    <contour>
      <point x="142" y="168" type="move"/>
      <point x="433" y="168" type="line"/>
    </contour>
    <contour>
      <point x="171" y="726" type="move"/>
      <point x="207" y="706"/>
      <point x="260" y="666"/>
      <point x="287" y="645" type="curve"/>
    </contour>
  </outline>
</glyph>
<glyph name="Atilde" format="1">
  <advance width="580"/>
  <unicode hex="00C3"/>
  <outline>
    <contour>
      <point x="281" y="517" type="move"/>
      <point x="213" y="364"/>
      <point x="118" y="149"/>
      <point x="73" y="23" type="curve"/>
    </contour>
    <contour>
      <point x="287" y="517" type="move"/>
      <point x="359" y="363"/>
      <point x="457" y="146"/>
      <point x="505" y="23" type="curve"/>
    </contour>
    <contour>
      <point x="142" y="168" type="move"/>
      <point x="433" y="168" type="line"/>
    </contour>
    <contour>
      <point x="164" y="648" type="move"/>
      <point x="187" y="677"/>
      <point x="209" y="695"/>
      <point x="232" y="695" type="curve" smooth="yes"/>
      <point x="253" y="695"/>
      <point x="271" y="683"/>
      <point x="291" y="668" type="curve" smooth="yes"/>
      <point x="311" y="653"/>
      <point x="329" y="642"/>
      <point x="349" y="642" type="curve" smooth="yes"/>
      <point x="377" y="642"/>
      <point x="398" y="660"/>
      <point x="424" y="694" type="curve"/>
    </contour>
  </outline>
</glyph>
<glyph name="Adieresis" format="1">
  <advance width="580"/>
  <unicode hex="00C4"/>
  <outline>
    <contour>
      <point x="281" y="517" type="move"/>
      <point x="213" y="364"/>
      <point x="118" y="149"/>
      <point x="73" y="23" type="curve"/>
    </contour>
    <contour>
      <point x="287" y="517" type="move"/>
      <point x="359" y="363"/>
      <point x="457" y="146"/>
      <point x="505" y="23" type="curve"/>
    </contour>
    <contour>
      <point x="142" y="168" type="move"/>
      <point x="433" y="168" type="line"/>
    </contour>
    <contour>
      <point x="188" y="686" type="curve" smooth="yes"/>
      <point x="177" y="686"/>
      <point x="170" y="673"/>
      <point x="170" y="660" type="curve" smooth="yes"/>
      <point x="170" y="646"/>
      <point x="177" y="634"/>
      <point x="188" y="634" type="curve" smooth="yes"/>
      <point x="198" y="634"/>
      <point x="204" y="646"/>
      <point x="204" y="660" type="curve" smooth="yes"/>
      <point x="204" y="673"/>
      <point x="198" y="686"/>
    </contour>
    <contour>
      <point x="381" y="686" type="curve" smooth="yes"/>
      <point x="370" y="686"/>
      <point x="364" y="673"/>
      <point x="364" y="660" type="curve" smooth="yes"/>
      <point x="364" y="646"/>
      <point x="370" y="634"/>
      <point x="381" y="634" type="curve" smooth="yes"/>
      <point x="391" y="634"/>
      <point x="397" y="646"/>
      <point x="397" y="660" type="curve" smooth="yes"/>
      <point x="397" y="673"/>
      <point x="391" y="686"/>
    </contour>
  </outline>
</glyph>
<glyph name="Aring" format="1">
  <advance width="580"/>
  <unicode hex="00C5"/>
  <outline>
    <contour>
      <point x="281" y="517" type="move"/>
      <point x="213" y="364"/>
      <point x="118" y="149"/>
      <point x="73" y="23" type="curve"/>
    </contour>
    <contour>
      <point x="287" y="517" type="move"/>
      <point x="359" y="363"/>
      <point x="457" y="146"/>
      <point x="505" y="23" type="curve"/>
    </contour>
    <contour>
      <point x="142" y="168" type="move"/>
      <point x="433" y="168" type="line"/>
    </contour>
    <contour>
      <point x="367" y="596" type="curve" smooth="yes"/>
      <point x="367" y="637"/>
      <point x="334" y="674"/>
      <point x="280" y="674" type="curve" smooth="yes"/>
      <point x="228" y="674"/>
      <point x="196" y="634"/>
      <point x="196" y="596" type="curve" smooth="yes"/>
      <point x="196" y="558"/>
      <point x="228" y="518"/>
      <point x="280" y="518" type="curve" smooth="yes"/>
      <point x="334" y="518"/>
      <point x="367" y="555"/>
    </contour>
  </outline>
</glyph>
<glyph name="AE" format="1">
  <advance width="755"/>
  <unicode hex="00C6"/>
  <outline>
    <contour>
      <point x="354" y="508" type="move"/>
      <point x="251" y="339"/>
      <point x="125" y="149"/>
      <point x="43" y="23" type="curve"/>
    </contour>
    <contour>
      <point x="143" y="168" type="move"/>
      <point x="392" y="168" type="line"/>
    </contour>
    <contour>
      <point x="410" y="508" type="move"/>
      <point x="359" y="508" type="line"/>
    </contour>
    <contour>
      <point x="393" y="508" type="move"/>
      <point x="393" y="23" type="line"/>
    </contour>
    <contour>
      <point x="401" y="23" type="move"/>
      <point x="672" y="23" type="line"/>
    </contour>
    <contour>
      <point x="401" y="508" type="move"/>
      <point x="670" y="508" type="line"/>
    </contour>
    <contour>
      <point x="401" y="284" type="move"/>
      <point x="627" y="284" type="line"/>
    </contour>
  </outline>
</glyph>
<glyph name="Egrave" format="1">
  <advance width="487"/>
  <unicode hex="00C8"/>
  <outline>
    <contour>
      <point x="123" y="508" type="move"/>
      <point x="123" y="23" type="line"/>
    </contour>
    <contour>
      <point x="131" y="23" type="move"/>
      <point x="402" y="23" type="line"/>
    </contour>
    <contour>
      <point x="131" y="508" type="move"/>
      <point x="400" y="508" type="line"/>
    </contour>
    <contour>
      <point x="131" y="284" type="move"/>
      <point x="357" y="284" type="line"/>
    </contour>
    <contour>
      <point x="156" y="726" type="move"/>
      <point x="192" y="706"/>
      <point x="245" y="666"/>
      <point x="272" y="645" type="curve"/>
    </contour>
  </outline>
</glyph>
<glyph name="Ecircumflex" format="1">
  <advance width="487"/>
  <unicode hex="00CA"/>
  <outline>
    <contour>
      <point x="123" y="508" type="move"/>
      <point x="123" y="23" type="line"/>
    </contour>
    <contour>
      <point x="131" y="23" type="move"/>
      <point x="402" y="23" type="line"/>
    </contour>
    <contour>
      <point x="131" y="508" type="move"/>
      <point x="400" y="508" type="line"/>
    </contour>
    <contour>
      <point x="131" y="284" type="move"/>
      <point x="357" y="284" type="line"/>
    </contour>
    <contour>
      <point x="249" y="723" type="move"/>
      <point x="216" y="699"/>
      <point x="181" y="675"/>
      <point x="153" y="654" type="curve"/>
    </contour>
    <contour>
      <point x="352" y="654" type="move"/>
      <point x="324" y="675"/>
      <point x="290" y="699"/>
      <point x="256" y="723" type="curve"/>
    </contour>
  </outline>
</glyph>
<glyph name="Edieresis" format="1">
  <advance width="487"/>
  <unicode hex="00CB"/>
  <outline>
    <contour>
      <point x="123" y="508" type="move"/>
      <point x="123" y="23" type="line"/>
    </contour>
    <contour>
      <point x="131" y="23" type="move"/>
      <point x="402" y="23" type="line"/>
    </contour>
    <contour>
      <point x="131" y="508" type="move"/>
      <point x="400" y="508" type="line"/>
    </contour>
    <contour>
      <point x="131" y="284" type="move"/>
      <point x="357" y="284" type="line"/>
    </contour>
    <contour>
      <point x="159" y="706" type="curve" smooth="yes"/>
      <point x="148" y="706"/>
      <point x="141" y="693"/>
      <point x="141" y="680" type="curve" smooth="yes"/>
      <point x="141" y="666"/>
      <point x="148" y="654"/>
      <point x="159" y="654" type="curve" smooth="yes"/>
      <point x="169" y="654"/>
      <point x="175" y="666"/>
      <point x="175" y="680" type="curve" smooth="yes"/>
      <point x="175" y="693"/>
      <point x="169" y="706"/>
    </contour>
    <contour>
      <point x="352" y="706" type="curve" smooth="yes"/>
      <point x="341" y="706"/>
      <point x="335" y="693"/>
      <point x="335" y="680" type="curve" smooth="yes"/>
      <point x="335" y="666"/>
      <point x="341" y="654"/>
      <point x="352" y="654" type="curve" smooth="yes"/>
      <point x="362" y="654"/>
      <point x="368" y="666"/>
      <point x="368" y="680" type="curve" smooth="yes"/>
      <point x="368" y="693"/>
      <point x="362" y="706"/>
    </contour>
  </outline>
</glyph>
<glyph name="Iacute" format="1">
  <advance width="256"/>
  <unicode hex="00CD"/>
  <outline>
    <contour>
      <point x="128" y="508" type="move"/>
      <point x="128" y="23" type="line"/>
    </contour>
    <contour>
      <point x="243" y="725" type="move"/>
      <point x="197" y="698"/>
      <point x="149" y="667"/>
      <point x="120" y="646" type="curve"/>
    </contour>
  </outline>
</glyph>
<glyph name="Icircumflex" format="1">
  <advance width="256"/>
  <unicode hex="00CE"/>
  <outline>
    <contour>
      <point x="128" y="508" type="move"/>
      <point x="128" y="23" type="line"/>
    </contour>
    <contour>
      <point x="122" y="723" type="move"/>
      <point x="89" y="699"/>
      <point x="54" y="675"/>
      <point x="26" y="654" type="curve"/>
    </contour>
    <contour>
      <point x="225" y="654" type="move"/>
      <point x="197" y="675"/>
      <point x="163" y="699"/>
      <point x="129" y="723" type="curve"/>
    </contour>
  </outline>
</glyph>
<glyph name="Idieresis" format="1">
  <advance width="256"/>
  <unicode hex="00CF"/>
  <outline>
    <contour>
      <point x="128" y="508" type="move"/>
      <point x="128" y="23" type="line"/>
    </contour>
    <contour>
      <point x="35" y="706" type="curve" smooth="yes"/>
      <point x="24" y="706"/>
      <point x="17" y="693"/>
      <point x="17" y="680" type="curve" smooth="yes"/>
      <point x="17" y="666"/>
      <point x="24" y="654"/>
      <point x="35" y="654" type="curve" smooth="yes"/>
      <point x="45" y="654"/>
      <point x="51" y="666"/>
      <point x="51" y="680" type="curve" smooth="yes"/>
      <point x="51" y="693"/>
      <point x="45" y="706"/>
    </contour>
    <contour>
      <point x="228" y="706" type="curve" smooth="yes"/>
      <point x="217" y="706"/>
      <point x="211" y="693"/>
      <point x="211" y="680" type="curve" smooth="yes"/>
      <point x="211" y="666"/>
      <point x="217" y="654"/>
      <point x="228" y="654" type="curve" smooth="yes"/>
      <point x="238" y="654"/>
      <point x="244" y="666"/>
      <point x="244" y="680" type="curve" smooth="yes"/>
      <point x="244" y="693"/>
      <point x="238" y="706"/>
    </contour>
  </outline>
</glyph>
<glyph name="Eth" format="1">
  <advance width="627"/>
  <unicode hex="00D0"/>
  <outline>
    <contour>
      <point x="64" y="270" type="move"/>
      <point x="310" y="270" type="line"/>
    </contour>
    <contour>
      <point x="314" y="23" type="line" smooth="yes"/>
      <point x="452" y="23"/>
      <point x="541" y="131"/>
      <point x="541" y="266" type="curve" smooth="yes"/>
      <point x="541" y="408"/>
      <point x="434" y="508"/>
      <point x="314" y="508" type="curve" smooth="yes"/>
      <point x="138" y="508" type="line"/>
      <point x="138" y="23" type="line"/>
    </contour>
  </outline>
</glyph>
<glyph name="Ntilde" format="1">
  <advance width="635"/>
  <unicode hex="00D1"/>
  <outline>
    <contour>
      <point x="123" y="508" type="move"/>
      <point x="123" y="23" type="line"/>
    </contour>
    <contour>
      <point x="512" y="508" type="move"/>
      <point x="512" y="23" type="line"/>
    </contour>
    <contour>
      <point x="129" y="508" type="move"/>
      <point x="204" y="408"/>
      <point x="399" y="166"/>
      <point x="506" y="23" type="curve"/>
    </contour>
    <contour>
      <point x="183" y="648" type="move"/>
      <point x="206" y="677"/>
      <point x="228" y="695"/>
      <point x="251" y="695" type="curve" smooth="yes"/>
      <point x="272" y="695"/>
      <point x="290" y="683"/>
      <point x="310" y="668" type="curve" smooth="yes"/>
      <point x="330" y="653"/>
      <point x="348" y="642"/>
      <point x="368" y="642" type="curve" smooth="yes"/>
      <point x="396" y="642"/>
      <point x="417" y="660"/>
      <point x="443" y="694" type="curve"/>
    </contour>
  </outline>
</glyph>
<glyph name="Ograve" format="1">
  <advance width="640"/>
  <unicode hex="00D2"/>
  <outline>
    <contour>
      <point x="322" y="517" type="curve" smooth="yes"/>
      <point x="181" y="517"/>
      <point x="86" y="413"/>
      <point x="86" y="262" type="curve" smooth="yes"/>
      <point x="86" y="124"/>
      <point x="183" y="14"/>
      <point x="322" y="14" type="curve" smooth="yes"/>
      <point x="469" y="14"/>
      <point x="554" y="124"/>
      <point x="554" y="265" type="curve" smooth="yes"/>
      <point x="554" y="413"/>
      <point x="451" y="517"/>
    </contour>
    <contour>
      <point x="203" y="726" type="move"/>
      <point x="239" y="706"/>
      <point x="292" y="666"/>
      <point x="319" y="645" type="curve"/>
    </contour>
  </outline>
</glyph>
<glyph name="Oacute" format="1">
  <advance width="640"/>
  <unicode hex="00D3"/>
  <outline>
    <contour>
      <point x="322" y="517" type="curve" smooth="yes"/>
      <point x="181" y="517"/>
      <point x="86" y="413"/>
      <point x="86" y="262" type="curve" smooth="yes"/>
      <point x="86" y="124"/>
      <point x="183" y="14"/>
      <point x="322" y="14" type="curve" smooth="yes"/>
      <point x="469" y="14"/>
      <point x="554" y="124"/>
      <point x="554" y="265" type="curve" smooth="yes"/>
      <point x="554" y="413"/>
      <point x="451" y="517"/>
    </contour>
    <contour>
      <point x="434" y="725" type="move"/>
      <point x="388" y="698"/>
      <point x="340" y="667"/>
      <point x="311" y="646" type="curve"/>
    </contour>
  </outline>
</glyph>
<glyph name="Ocircumflex" format="1">
  <advance width="640"/>
  <unicode hex="00D4"/>
  <outline>
    <contour>
      <point x="322" y="517" type="curve" smooth="yes"/>
      <point x="181" y="517"/>
      <point x="86" y="413"/>
      <point x="86" y="262" type="curve" smooth="yes"/>
      <point x="86" y="124"/>
      <point x="183" y="14"/>
      <point x="322" y="14" type="curve" smooth="yes"/>
      <point x="469" y="14"/>
      <point x="554" y="124"/>
      <point x="554" y="265" type="curve" smooth="yes"/>
      <point x="554" y="413"/>
      <point x="451" y="517"/>
    </contour>
    <contour>
      <point x="316" y="713" type="move"/>
      <point x="283" y="689"/>
      <point x="248" y="665"/>
      <point x="220" y="644" type="curve"/>
    </contour>
    <contour>
      <point x="419" y="644" type="move"/>
      <point x="391" y="665"/>
      <point x="357" y="689"/>
      <point x="323" y="713" type="curve"/>
    </contour>
  </outline>
</glyph>
<glyph name="Otilde" format="1">
  <advance width="640"/>
  <unicode hex="00D5"/>
  <outline>
    <contour>
      <point x="322" y="517" type="curve" smooth="yes"/>
      <point x="181" y="517"/>
      <point x="86" y="413"/>
      <point x="86" y="262" type="curve" smooth="yes"/>
      <point x="86" y="124"/>
      <point x="183" y="14"/>
      <point x="322" y="14" type="curve" smooth="yes"/>
      <point x="469" y="14"/>
      <point x="554" y="124"/>
      <point x="554" y="265" type="curve" smooth="yes"/>
      <point x="554" y="413"/>
      <point x="451" y="517"/>
    </contour>
    <contour>
      <point x="195" y="658" type="move"/>
      <point x="218" y="687"/>
      <point x="240" y="705"/>
      <point x="263" y="705" type="curve" smooth="yes"/>
      <point x="284" y="705"/>
      <point x="302" y="693"/>
      <point x="322" y="678" type="curve" smooth="yes"/>
      <point x="342" y="663"/>
      <point x="360" y="652"/>
      <point x="380" y="652" type="curve" smooth="yes"/>
      <point x="408" y="652"/>
      <point x="429" y="670"/>
      <point x="455" y="704" type="curve"/>
    </contour>
  </outline>
</glyph>
<glyph name="Odieresis" format="1">
  <advance width="640"/>
  <unicode hex="00D6"/>
  <outline>
    <contour>
      <point x="322" y="517" type="curve" smooth="yes"/>
      <point x="181" y="517"/>
      <point x="86" y="413"/>
      <point x="86" y="262" type="curve" smooth="yes"/>
      <point x="86" y="124"/>
      <point x="183" y="14"/>
      <point x="322" y="14" type="curve" smooth="yes"/>
      <point x="469" y="14"/>
      <point x="554" y="124"/>
      <point x="554" y="265" type="curve" smooth="yes"/>
      <point x="554" y="413"/>
      <point x="451" y="517"/>
    </contour>
    <contour>
      <point x="222" y="706" type="curve" smooth="yes"/>
      <point x="211" y="706"/>
      <point x="204" y="693"/>
      <point x="204" y="680" type="curve" smooth="yes"/>
      <point x="204" y="666"/>
      <point x="211" y="654"/>
      <point x="222" y="654" type="curve" smooth="yes"/>
      <point x="232" y="654"/>
      <point x="238" y="666"/>
      <point x="238" y="680" type="curve" smooth="yes"/>
      <point x="238" y="693"/>
      <point x="232" y="706"/>
    </contour>
    <contour>
      <point x="415" y="706" type="curve" smooth="yes"/>
      <point x="404" y="706"/>
      <point x="398" y="693"/>
      <point x="398" y="680" type="curve" smooth="yes"/>
      <point x="398" y="666"/>
      <point x="404" y="654"/>
      <point x="415" y="654" type="curve" smooth="yes"/>
      <point x="425" y="654"/>
      <point x="431" y="666"/>
      <point x="431" y="680" type="curve" smooth="yes"/>
      <point x="431" y="693"/>
      <point x="425" y="706"/>
    </contour>
  </outline>
</glyph>
<glyph name="Oslash" format="1">
  <advance width="640"/>
  <unicode hex="00D8"/>
  <outline>
    <contour>
      <point x="525" y="508" type="move"/>
      <point x="115" y="4" type="line"/>
    </contour>
    <contour>
      <point x="322" y="517" type="curve" smooth="yes"/>
      <point x="181" y="517"/>
      <point x="86" y="413"/>
      <point x="86" y="262" type="curve" smooth="yes"/>
      <point x="86" y="124"/>
      <point x="183" y="14"/>
      <point x="322" y="14" type="curve" smooth="yes"/>
      <point x="469" y="14"/>
      <point x="554" y="124"/>
      <point x="554" y="265" type="curve" smooth="yes"/>
      <point x="554" y="413"/>
      <point x="451" y="517"/>
    </contour>
  </outline>
</glyph>
<glyph name="Ugrave" format="1">
  <advance width="616"/>
  <unicode hex="00D9"/>
  <outline>
    <contour>
      <point x="111" y="508" type="move"/>
      <point x="111" y="212" type="line" smooth="yes"/>
      <point x="111" y="85"/>
      <point x="191" y="14"/>
      <point x="306" y="14" type="curve" smooth="yes"/>
      <point x="433" y="14"/>
      <point x="505" y="85"/>
      <point x="505" y="215" type="curve" smooth="yes"/>
      <point x="505" y="508" type="line"/>
    </contour>
    <contour>
      <point x="201" y="696" type="move"/>
      <point x="237" y="676"/>
      <point x="290" y="636"/>
      <point x="317" y="615" type="curve"/>
    </contour>
  </outline>
</glyph>
<glyph name="Uacute" format="1">
  <advance width="616"/>
  <unicode hex="00DA"/>
  <outline>
    <contour>
      <point x="111" y="508" type="move"/>
      <point x="111" y="212" type="line" smooth="yes"/>
      <point x="111" y="85"/>
      <point x="191" y="14"/>
      <point x="306" y="14" type="curve" smooth="yes"/>
      <point x="433" y="14"/>
      <point x="505" y="85"/>
      <point x="505" y="215" type="curve" smooth="yes"/>
      <point x="505" y="508" type="line"/>
    </contour>
    <contour>
      <point x="428" y="695" type="move"/>
      <point x="382" y="668"/>
      <point x="334" y="637"/>
      <point x="305" y="616" type="curve"/>
    </contour>
  </outline>
</glyph>
<glyph name="Ucircumflex" format="1">
  <advance width="616"/>
  <unicode hex="00DB"/>
  <outline>
    <contour>
      <point x="111" y="508" type="move"/>
      <point x="111" y="212" type="line" smooth="yes"/>
      <point x="111" y="85"/>
      <point x="191" y="14"/>
      <point x="306" y="14" type="curve" smooth="yes"/>
      <point x="433" y="14"/>
      <point x="505" y="85"/>
      <point x="505" y="215" type="curve" smooth="yes"/>
      <point x="505" y="508" type="line"/>
    </contour>
    <contour>
      <point x="297" y="693" type="move"/>
      <point x="264" y="669"/>
      <point x="229" y="645"/>
      <point x="201" y="624" type="curve"/>
    </contour>
    <contour>
      <point x="400" y="624" type="move"/>
      <point x="372" y="645"/>
      <point x="338" y="669"/>
      <point x="304" y="693" type="curve"/>
    </contour>
  </outline>
</glyph>
<glyph name="Udieresis" format="1">
  <advance width="616"/>
  <unicode hex="00DC"/>
  <outline>
    <contour>
      <point x="111" y="508" type="move"/>
      <point x="111" y="212" type="line" smooth="yes"/>
      <point x="111" y="85"/>
      <point x="191" y="14"/>
      <point x="306" y="14" type="curve" smooth="yes"/>
      <point x="433" y="14"/>
      <point x="505" y="85"/>
      <point x="505" y="215" type="curve" smooth="yes"/>
      <point x="505" y="508" type="line"/>
    </contour>
    <contour>
      <point x="210" y="676" type="curve" smooth="yes"/>
      <point x="199" y="676"/>
      <point x="192" y="663"/>
      <point x="192" y="650" type="curve" smooth="yes"/>
      <point x="192" y="636"/>
      <point x="199" y="624"/>
      <point x="210" y="624" type="curve" smooth="yes"/>
      <point x="220" y="624"/>
      <point x="226" y="636"/>
      <point x="226" y="650" type="curve" smooth="yes"/>
      <point x="226" y="663"/>
      <point x="220" y="676"/>
    </contour>
    <contour>
      <point x="403" y="676" type="curve" smooth="yes"/>
      <point x="392" y="676"/>
      <point x="386" y="663"/>
      <point x="386" y="650" type="curve" smooth="yes"/>
      <point x="386" y="636"/>
      <point x="392" y="624"/>
      <point x="403" y="624" type="curve" smooth="yes"/>
      <point x="413" y="624"/>
      <point x="419" y="636"/>
      <point x="419" y="650" type="curve" smooth="yes"/>
      <point x="419" y="663"/>
      <point x="413" y="676"/>
    </contour>
  </outline>
</glyph>
<glyph name="Yacute" format="1">
  <advance width="560"/>
  <unicode hex="00DD"/>
  <outline>
    <contour>
      <point x="282" y="191" type="move"/>
      <point x="282" y="23" type="line"/>
    </contour>
    <contour>
      <point x="74" y="508" type="move"/>
      <point x="116" y="438"/>
      <point x="236" y="260"/>
      <point x="279" y="203" type="curve"/>
    </contour>
    <contour>
      <point x="282" y="197" type="move"/>
      <point x="331" y="263"/>
      <point x="445" y="439"/>
      <point x="486" y="508" type="curve"/>
    </contour>
    <contour>
      <point x="406" y="695" type="move"/>
      <point x="360" y="668"/>
      <point x="312" y="637"/>
      <point x="283" y="616" type="curve"/>
    </contour>
  </outline>
</glyph>
<glyph name="ae" format="1">
  <advance width="745"/>
  <unicode hex="00E6"/>
  <outline>
    <contour>
      <point x="122" y="349" type="move"/>
      <point x="143" y="356"/>
      <point x="182" y="365"/>
      <point x="215" y="365" type="curve" smooth="yes"/>
      <point x="307" y="365"/>
      <point x="356" y="309"/>
      <point x="356" y="228" type="curve" smooth="yes"/>
      <point x="356" y="202" type="line" smooth="yes"/>
    </contour>
    <contour>
      <point x="355" y="217" type="move"/>
      <point x="321" y="218"/>
      <point x="284" y="220"/>
      <point x="255" y="220" type="curve" smooth="yes"/>
      <point x="182" y="220"/>
      <point x="133" y="202"/>
      <point x="103" y="172" type="curve" smooth="yes"/>
      <point x="82" y="152"/>
      <point x="75" y="129"/>
      <point x="75" y="104" type="curve" smooth="yes"/>
      <point x="75" y="68"/>
      <point x="101" y="23"/>
      <point x="172" y="23" type="curve" smooth="yes"/>
      <point x="246" y="23"/>
      <point x="313" y="60"/>
      <point x="370" y="111" type="curve"/>
    </contour>
    <contour>
      <point x="372" y="193" type="move"/>
      <point x="581" y="193" type="line" smooth="yes"/>
      <point x="641" y="193"/>
      <point x="663" y="217"/>
      <point x="663" y="255" type="curve" smooth="yes"/>
      <point x="663" y="303"/>
      <point x="610" y="365"/>
      <point x="527" y="365" type="curve" smooth="yes"/>
      <point x="434" y="365"/>
      <point x="359" y="294"/>
      <point x="359" y="189" type="curve" smooth="yes"/>
      <point x="359" y="81"/>
      <point x="436" y="23"/>
      <point x="547" y="23" type="curve" smooth="yes"/>
      <point x="583" y="23"/>
      <point x="618" y="31"/>
      <point x="644" y="41" type="curve"/>
      <point x="644" y="41"/>
    </contour>
  </outline>
</glyph>
<glyph name="ccedilla" format="1">
  <advance width="436"/>
  <unicode hex="00E7"/>
  <outline>
    <contour>
      <point x="349" y="350" type="move"/>
      <point x="322" y="359"/>
      <point x="289" y="365"/>
      <point x="260" y="365" type="curve" smooth="yes"/>
      <point x="142" y="365"/>
      <point x="74" y="289"/>
      <point x="74" y="185" type="curve" smooth="yes"/>
      <point x="74" y="94"/>
      <point x="140" y="23"/>
      <point x="259" y="23" type="curve" smooth="yes"/>
      <point x="300" y="23"/>
      <point x="333" y="31"/>
      <point x="361" y="42" type="curve"/>
    </contour>
    <contour>
      <point x="266" y="-123" type="move"/>
      <point x="239" y="-149"/>
      <point x="188" y="-200"/>
      <point x="165" y="-223" type="curve"/>
    </contour>
  </outline>
</glyph>
<glyph name="eacute" format="1">
  <advance width="460"/>
  <unicode hex="00E9"/>
  <outline>
    <contour>
      <point x="87" y="193" type="move"/>
      <point x="296" y="193" type="line" smooth="yes"/>
      <point x="356" y="193"/>
      <point x="378" y="217"/>
      <point x="378" y="255" type="curve" smooth="yes"/>
      <point x="378" y="303"/>
      <point x="325" y="365"/>
      <point x="242" y="365" type="curve" smooth="yes"/>
      <point x="149" y="365"/>
      <point x="74" y="294"/>
      <point x="74" y="189" type="curve" smooth="yes"/>
      <point x="74" y="81"/>
      <point x="151" y="23"/>
      <point x="262" y="23" type="curve" smooth="yes"/>
      <point x="298" y="23"/>
      <point x="333" y="31"/>
      <point x="359" y="41" type="curve"/>
      <point x="359" y="41"/>
    </contour>
    <contour>
      <point x="323" y="597" type="move"/>
      <point x="295" y="566"/>
      <point x="268" y="534"/>
      <point x="242" y="503" type="curve"/>
    </contour>
  </outline>
</glyph>
<glyph name="ecircumflex" format="1">
  <advance width="460"/>
  <unicode hex="00EA"/>
  <outline>
    <contour>
      <point x="87" y="193" type="move"/>
      <point x="296" y="193" type="line" smooth="yes"/>
      <point x="356" y="193"/>
      <point x="378" y="217"/>
      <point x="378" y="255" type="curve" smooth="yes"/>
      <point x="378" y="303"/>
      <point x="325" y="365"/>
      <point x="242" y="365" type="curve" smooth="yes"/>
      <point x="149" y="365"/>
      <point x="74" y="294"/>
      <point x="74" y="189" type="curve" smooth="yes"/>
      <point x="74" y="81"/>
      <point x="151" y="23"/>
      <point x="262" y="23" type="curve" smooth="yes"/>
      <point x="298" y="23"/>
      <point x="333" y="31"/>
      <point x="359" y="41" type="curve"/>
      <point x="359" y="41"/>
    </contour>
    <contour>
      <point x="233" y="593" type="move"/>
      <point x="203" y="563"/>
      <point x="171" y="532"/>
      <point x="145" y="506" type="curve"/>
    </contour>
    <contour>
      <point x="327" y="506" type="move"/>
      <point x="301" y="532"/>
      <point x="270" y="563"/>
      <point x="239" y="593" type="curve"/>
    </contour>
  </outline>
</glyph>
<glyph name="edieresis" format="1">
  <advance width="460"/>
  <unicode hex="00EB"/>
  <outline>
    <contour>
      <point x="87" y="193" type="move"/>
      <point x="296" y="193" type="line" smooth="yes"/>
      <point x="356" y="193"/>
      <point x="378" y="217"/>
      <point x="378" y="255" type="curve" smooth="yes"/>
      <point x="378" y="303"/>
      <point x="325" y="365"/>
      <point x="242" y="365" type="curve" smooth="yes"/>
      <point x="149" y="365"/>
      <point x="74" y="294"/>
      <point x="74" y="189" type="curve" smooth="yes"/>
      <point x="74" y="81"/>
      <point x="151" y="23"/>
      <point x="262" y="23" type="curve" smooth="yes"/>
      <point x="298" y="23"/>
      <point x="333" y="31"/>
      <point x="359" y="41" type="curve"/>
      <point x="359" y="41"/>
    </contour>
    <contour>
      <point x="142" y="567" type="curve" smooth="yes"/>
      <point x="131" y="567"/>
      <point x="125" y="554"/>
      <point x="125" y="541" type="curve" smooth="yes"/>
      <point x="125" y="528"/>
      <point x="131" y="517"/>
      <point x="142" y="517" type="curve" smooth="yes"/>
      <point x="152" y="517"/>
      <point x="158" y="528"/>
      <point x="158" y="541" type="curve" smooth="yes"/>
      <point x="158" y="554"/>
      <point x="152" y="567"/>
    </contour>
    <contour>
      <point x="320" y="567" type="curve" smooth="yes"/>
      <point x="309" y="567"/>
      <point x="303" y="554"/>
      <point x="303" y="541" type="curve" smooth="yes"/>
      <point x="303" y="528"/>
      <point x="309" y="517"/>
      <point x="320" y="517" type="curve" smooth="yes"/>
      <point x="330" y="517"/>
      <point x="336" y="528"/>
      <point x="336" y="541" type="curve" smooth="yes"/>
      <point x="336" y="554"/>
      <point x="330" y="567"/>
    </contour>
  </outline>
</glyph>
<glyph name="igrave" format="1">
  <advance width="232"/>
  <unicode hex="00EC"/>
  <outline>
    <contour>
      <point x="116" y="23" type="move"/>
      <point x="116" y="365" type="line"/>
    </contour>
    <contour>
      <point x="37" y="596" type="move"/>
      <point x="64" y="561"/>
      <point x="81" y="540"/>
      <point x="106" y="501" type="curve"/>
    </contour>
  </outline>
</glyph>
<glyph name="iacute" format="1">
  <advance width="232"/>
  <unicode hex="00ED"/>
  <outline>
    <contour>
      <point x="116" y="23" type="move"/>
      <point x="116" y="365" type="line"/>
    </contour>
    <contour>
      <point x="196" y="597" type="move"/>
      <point x="168" y="566"/>
      <point x="141" y="534"/>
      <point x="115" y="503" type="curve"/>
    </contour>
  </outline>
</glyph>
<glyph name="icircumflex" format="1">
  <advance width="232"/>
  <unicode hex="00EE"/>
  <outline>
    <contour>
      <point x="116" y="23" type="move"/>
      <point x="116" y="365" type="line"/>
    </contour>
    <contour>
      <point x="108" y="593" type="move"/>
      <point x="78" y="563"/>
      <point x="46" y="532"/>
      <point x="20" y="506" type="curve"/>
    </contour>
    <contour>
      <point x="202" y="506" type="move"/>
      <point x="176" y="532"/>
      <point x="145" y="563"/>
      <point x="114" y="593" type="curve"/>
    </contour>
  </outline>
</glyph>
<glyph name="idieresis" format="1">
  <advance width="232"/>
  <unicode hex="00EF"/>
  <outline>
    <contour>
      <point x="116" y="23" type="move"/>
      <point x="116" y="365" type="line"/>
    </contour>
    <contour>
      <point x="20" y="567" type="curve" smooth="yes"/>
      <point x="9" y="567"/>
      <point x="3" y="554"/>
      <point x="3" y="541" type="curve" smooth="yes"/>
      <point x="3" y="528"/>
      <point x="9" y="517"/>
      <point x="20" y="517" type="curve" smooth="yes"/>
      <point x="30" y="517"/>
      <point x="36" y="528"/>
      <point x="36" y="541" type="curve" smooth="yes"/>
      <point x="36" y="554"/>
      <point x="30" y="567"/>
    </contour>
    <contour>
      <point x="198" y="567" type="curve" smooth="yes"/>
      <point x="187" y="567"/>
      <point x="181" y="554"/>
      <point x="181" y="541" type="curve" smooth="yes"/>
      <point x="181" y="528"/>
      <point x="187" y="517"/>
      <point x="198" y="517" type="curve" smooth="yes"/>
      <point x="208" y="517"/>
      <point x="214" y="528"/>
      <point x="214" y="541" type="curve" smooth="yes"/>
      <point x="214" y="554"/>
      <point x="208" y="567"/>
    </contour>
  </outline>
</glyph>
<glyph name="ntilde" format="1">
  <advance width="497"/>
  <unicode hex="00F1"/>
  <outline>
    <contour>
      <point x="110" y="23" type="move"/>
      <point x="110" y="365" type="line"/>
    </contour>
    <contour>
      <point x="397" y="23" type="move"/>
      <point x="397" y="223" type="line" smooth="yes"/>
      <point x="397" y="328"/>
      <point x="349" y="365"/>
      <point x="285" y="365" type="curve" smooth="yes"/>
      <point x="222" y="365"/>
      <point x="162" y="326"/>
      <point x="114" y="278" type="curve"/>
    </contour>
    <contour>
      <point x="137" y="520" type="move"/>
      <point x="156" y="548"/>
      <point x="177" y="568"/>
      <point x="197" y="568" type="curve" smooth="yes"/>
      <point x="215" y="568"/>
      <point x="227" y="558"/>
      <point x="249" y="541" type="curve" smooth="yes"/>
      <point x="269" y="526"/>
      <point x="284" y="516"/>
      <point x="301" y="516" type="curve" smooth="yes"/>
      <point x="322" y="516"/>
      <point x="338" y="534"/>
      <point x="358" y="564" type="curve"/>
    </contour>
  </outline>
</glyph>
<glyph name="ograve" format="1">
  <advance width="495"/>
  <unicode hex="00F2"/>
  <outline>
    <contour>
      <point x="247" y="369" type="curve" smooth="yes"/>
      <point x="139" y="369"/>
      <point x="73" y="288"/>
      <point x="73" y="191" type="curve" smooth="yes"/>
      <point x="73" y="94"/>
      <point x="141" y="19"/>
      <point x="247" y="19" type="curve" smooth="yes"/>
      <point x="353" y="19"/>
      <point x="421" y="93"/>
      <point x="421" y="189" type="curve" smooth="yes"/>
      <point x="421" y="288"/>
      <point x="354" y="369"/>
    </contour>
    <contour>
      <point x="165" y="596" type="move"/>
      <point x="192" y="561"/>
      <point x="209" y="540"/>
      <point x="234" y="501" type="curve"/>
    </contour>
  </outline>
</glyph>
<glyph name="oacute" format="1">
  <advance width="495"/>
  <unicode hex="00F3"/>
  <outline>
    <contour>
      <point x="247" y="369" type="curve" smooth="yes"/>
      <point x="139" y="369"/>
      <point x="73" y="288"/>
      <point x="73" y="191" type="curve" smooth="yes"/>
      <point x="73" y="94"/>
      <point x="141" y="19"/>
      <point x="247" y="19" type="curve" smooth="yes"/>
      <point x="353" y="19"/>
      <point x="421" y="93"/>
      <point x="421" y="189" type="curve" smooth="yes"/>
      <point x="421" y="288"/>
      <point x="354" y="369"/>
    </contour>
    <contour>
      <point x="324" y="597" type="move"/>
      <point x="296" y="566"/>
      <point x="269" y="534"/>
      <point x="243" y="503" type="curve"/>
    </contour>
  </outline>
</glyph>
<glyph name="ocircumflex" format="1">
  <advance width="495"/>
  <unicode hex="00F4"/>
  <outline>
    <contour>
      <point x="247" y="369" type="curve" smooth="yes"/>
      <point x="139" y="369"/>
      <point x="73" y="288"/>
      <point x="73" y="191" type="curve" smooth="yes"/>
      <point x="73" y="94"/>
      <point x="141" y="19"/>
      <point x="247" y="19" type="curve" smooth="yes"/>
      <point x="353" y="19"/>
      <point x="421" y="93"/>
      <point x="421" y="189" type="curve" smooth="yes"/>
      <point x="421" y="288"/>
      <point x="354" y="369"/>
    </contour>
    <contour>
      <point x="241" y="593" type="move"/>
      <point x="211" y="563"/>
      <point x="179" y="532"/>
      <point x="153" y="506" type="curve"/>
    </contour>
    <contour>
      <point x="335" y="506" type="move"/>
      <point x="309" y="532"/>
      <point x="278" y="563"/>
      <point x="247" y="593" type="curve"/>
    </contour>
  </outline>
</glyph>
<glyph name="odieresis" format="1">
  <advance width="495"/>
  <unicode hex="00F6"/>
  <outline>
    <contour>
      <point x="247" y="369" type="curve" smooth="yes"/>
      <point x="139" y="369"/>
      <point x="73" y="288"/>
      <point x="73" y="191" type="curve" smooth="yes"/>
      <point x="73" y="94"/>
      <point x="141" y="19"/>
      <point x="247" y="19" type="curve" smooth="yes"/>
      <point x="353" y="19"/>
      <point x="421" y="93"/>
      <point x="421" y="189" type="curve" smooth="yes"/>
      <point x="421" y="288"/>
      <point x="354" y="369"/>
    </contour>
    <contour>
      <point x="155" y="567" type="curve" smooth="yes"/>
      <point x="144" y="567"/>
      <point x="138" y="554"/>
      <point x="138" y="541" type="curve" smooth="yes"/>
      <point x="138" y="528"/>
      <point x="144" y="517"/>
      <point x="155" y="517" type="curve" smooth="yes"/>
      <point x="165" y="517"/>
      <point x="171" y="528"/>
      <point x="171" y="541" type="curve" smooth="yes"/>
      <point x="171" y="554"/>
      <point x="165" y="567"/>
    </contour>
    <contour>
      <point x="333" y="567" type="curve" smooth="yes"/>
      <point x="322" y="567"/>
      <point x="316" y="554"/>
      <point x="316" y="541" type="curve" smooth="yes"/>
      <point x="316" y="528"/>
      <point x="322" y="517"/>
      <point x="333" y="517" type="curve" smooth="yes"/>
      <point x="343" y="517"/>
      <point x="349" y="528"/>
      <point x="349" y="541" type="curve" smooth="yes"/>
      <point x="349" y="554"/>
      <point x="343" y="567"/>
    </contour>
  </outline>
</glyph>
<glyph name="oslash" format="1">
  <advance width="500"/>
  <unicode hex="00F8"/>
  <outline>
    <contour>
      <point x="78" y="23" type="move"/>
      <point x="419" y="365" type="line"/>
    </contour>
    <contour>
      <point x="250" y="369" type="curve" smooth="yes"/>
      <point x="142" y="369"/>
      <point x="76" y="288"/>
      <point x="76" y="191" type="curve" smooth="yes"/>
      <point x="76" y="94"/>
      <point x="144" y="19"/>
      <point x="250" y="19" type="curve" smooth="yes"/>
      <point x="356" y="19"/>
      <point x="424" y="93"/>
      <point x="424" y="189" type="curve" smooth="yes"/>
      <point x="424" y="288"/>
      <point x="357" y="369"/>
    </contour>
  </outline>
</glyph>
<glyph name="ugrave" format="1">
  <advance width="497"/>
  <unicode hex="00F9"/>
  <outline>
    <contour>
      <point x="387" y="365" type="move"/>
      <point x="387" y="23" type="line"/>
    </contour>
    <contour>
      <point x="100" y="365" type="move"/>
      <point x="100" y="165" type="line" smooth="yes"/>
      <point x="100" y="60"/>
      <point x="148" y="23"/>
      <point x="212" y="23" type="curve" smooth="yes"/>
      <point x="275" y="23"/>
      <point x="341" y="72"/>
      <point x="383" y="130" type="curve"/>
    </contour>
    <contour>
      <point x="163" y="596" type="move"/>
      <point x="190" y="561"/>
      <point x="207" y="540"/>
      <point x="232" y="501" type="curve"/>
    </contour>
  </outline>
</glyph>
<glyph name="uacute" format="1">
  <advance width="497"/>
  <unicode hex="00FA"/>
  <outline>
    <contour>
      <point x="387" y="365" type="move"/>
      <point x="387" y="23" type="line"/>
    </contour>
    <contour>
      <point x="100" y="365" type="move"/>
      <point x="100" y="165" type="line" smooth="yes"/>
      <point x="100" y="60"/>
      <point x="148" y="23"/>
      <point x="212" y="23" type="curve" smooth="yes"/>
      <point x="275" y="23"/>
      <point x="341" y="72"/>
      <point x="383" y="130" type="curve"/>
    </contour>
    <contour>
      <point x="319" y="597" type="move"/>
      <point x="291" y="566"/>
      <point x="264" y="534"/>
      <point x="238" y="503" type="curve"/>
    </contour>
  </outline>
</glyph>
<glyph name="yacute" format="1">
  <advance width="450"/>
  <unicode hex="00FD"/>
  <outline>
    <contour>
      <point x="63" y="-151" type="move"/>
      <point x="126" y="-115"/>
      <point x="183" y="-71"/>
      <point x="239" y="24" type="curve" smooth="yes"/>
      <point x="292" y="114"/>
      <point x="352" y="252"/>
      <point x="386" y="365" type="curve"/>
    </contour>
    <contour>
      <point x="65" y="366" type="move"/>
      <point x="119" y="213"/>
      <point x="185" y="103"/>
      <point x="236" y="24" type="curve"/>
    </contour>
    <contour>
      <point x="299" y="597" type="move"/>
      <point x="271" y="566"/>
      <point x="244" y="534"/>
      <point x="218" y="503" type="curve"/>
    </contour>
  </outline>
</glyph>
<glyph name="ydieresis" format="1">
  <advance width="450"/>
  <unicode hex="00FF"/>
  <outline>
    <contour>
      <point x="63" y="-151" type="move"/>
      <point x="126" y="-115"/>
      <point x="183" y="-71"/>
      <point x="239" y="24" type="curve" smooth="yes"/>
      <point x="292" y="114"/>
      <point x="352" y="252"/>
      <point x="386" y="365" type="curve"/>
    </contour>
    <contour>
      <point x="65" y="366" type="move"/>
      <point x="119" y="213"/>
      <point x="185" y="103"/>
      <point x="236" y="24" type="curve"/>
    </contour>
    <contour>
      <point x="127" y="567" type="curve" smooth="yes"/>
      <point x="116" y="567"/>
      <point x="110" y="554"/>
      <point x="110" y="541" type="curve" smooth="yes"/>
      <point x="110" y="528"/>
      <point x="116" y="517"/>
      <point x="127" y="517" type="curve" smooth="yes"/>
      <point x="137" y="517"/>
      <point x="143" y="528"/>
      <point x="143" y="541" type="curve" smooth="yes"/>
      <point x="143" y="554"/>
      <point x="137" y="567"/>
    </contour>
    <contour>
      <point x="305" y="567" type="curve" smooth="yes"/>
      <point x="294" y="567"/>
      <point x="288" y="554"/>
      <point x="288" y="541" type="curve" smooth="yes"/>
      <point x="288" y="528"/>
      <point x="294" y="517"/>
      <point x="305" y="517" type="curve" smooth="yes"/>
      <point x="315" y="517"/>
      <point x="321" y="528"/>
      <point x="321" y="541" type="curve" smooth="yes"/>
      <point x="321" y="554"/>
      <point x="315" y="567"/>
    </contour>
  </outline>
</glyph>
<glyph name="Amacron" format="1">
  <advance width="574"/>
  <unicode hex="0100"/>
  <outline>
    <contour>
      <point x="281" y="517" type="move"/>
      <point x="213" y="364"/>
      <point x="118" y="149"/>
      <point x="73" y="23" type="curve"/>
    </contour>
    <contour>
      <point x="287" y="517" type="move"/>
      <point x="359" y="363"/>
      <point x="457" y="146"/>
      <point x="505" y="23" type="curve"/>
    </contour>
    <contour>
      <point x="142" y="168" type="move"/>
      <point x="433" y="168" type="line"/>
    </contour>
    <contour>
      <point x="397" y="684" type="move"/>
      <point x="168" y="684" type="line"/>
    </contour>
  </outline>
</glyph>
<glyph name="Abreve" format="1">
  <advance width="580"/>
  <unicode hex="0102"/>
  <outline>
    <contour>
      <point x="281" y="517" type="move"/>
      <point x="213" y="364"/>
      <point x="118" y="149"/>
      <point x="73" y="23" type="curve"/>
    </contour>
    <contour>
      <point x="287" y="517" type="move"/>
      <point x="359" y="363"/>
      <point x="457" y="146"/>
      <point x="505" y="23" type="curve"/>
    </contour>
    <contour>
      <point x="142" y="168" type="move"/>
      <point x="433" y="168" type="line"/>
    </contour>
    <contour>
      <point x="157" y="729" type="move"/>
      <point x="186" y="692"/>
      <point x="229" y="666"/>
      <point x="276" y="666" type="curve" smooth="yes"/>
      <point x="329" y="666"/>
      <point x="366" y="691"/>
      <point x="392" y="729" type="curve"/>
    </contour>
  </outline>
</glyph>
<glyph name="Aogonek" format="1">
  <advance width="590"/>
  <unicode hex="0104"/>
  <outline>
    <contour>
      <point x="281" y="517" type="move"/>
      <point x="213" y="364"/>
      <point x="118" y="149"/>
      <point x="73" y="23" type="curve"/>
    </contour>
    <contour>
      <point x="287" y="517" type="move"/>
      <point x="359" y="363"/>
      <point x="457" y="146"/>
      <point x="505" y="23" type="curve"/>
    </contour>
    <contour>
      <point x="142" y="168" type="move"/>
      <point x="433" y="168" type="line"/>
    </contour>
    <contour>
      <point x="500" y="23" type="move"/>
      <point x="500" y="-12" type="line"/>
      <point x="414" y="-82"/>
      <point x="397" y="-110"/>
      <point x="397" y="-137" type="curve" smooth="yes"/>
      <point x="397" y="-172"/>
      <point x="437" y="-197"/>
      <point x="515" y="-197" type="curve"/>
    </contour>
  </outline>
</glyph>
<glyph name="cacute" format="1">
  <advance width="436"/>
  <unicode hex="0107"/>
  <outline>
    <contour>
      <point x="349" y="350" type="move"/>
      <point x="322" y="359"/>
      <point x="289" y="365"/>
      <point x="260" y="365" type="curve" smooth="yes"/>
      <point x="142" y="365"/>
      <point x="74" y="289"/>
      <point x="74" y="185" type="curve" smooth="yes"/>
      <point x="74" y="94"/>
      <point x="140" y="23"/>
      <point x="259" y="23" type="curve" smooth="yes"/>
      <point x="300" y="23"/>
      <point x="333" y="31"/>
      <point x="361" y="42" type="curve"/>
    </contour>
    <contour>
      <point x="317" y="597" type="move"/>
      <point x="289" y="566"/>
      <point x="262" y="534"/>
      <point x="236" y="503" type="curve"/>
    </contour>
  </outline>
</glyph>
<glyph name="Ccaron" format="1">
  <advance width="566"/>
  <unicode hex="010C"/>
  <outline>
    <contour>
      <point x="470" y="488" type="move"/>
      <point x="437" y="506"/>
      <point x="387" y="517"/>
      <point x="334" y="517" type="curve" smooth="yes"/>
      <point x="201" y="517"/>
      <point x="86" y="415"/>
      <point x="86" y="262" type="curve" smooth="yes"/>
      <point x="86" y="122"/>
      <point x="179" y="14"/>
      <point x="340" y="14" type="curve" smooth="yes"/>
      <point x="392" y="14"/>
      <point x="438" y="25"/>
      <point x="475" y="44" type="curve"/>
    </contour>
    <contour>
      <point x="328" y="654" type="move"/>
      <point x="361" y="678"/>
      <point x="396" y="702"/>
      <point x="424" y="723" type="curve"/>
    </contour>
    <contour>
      <point x="225" y="723" type="move"/>
      <point x="253" y="702"/>
      <point x="287" y="678"/>
      <point x="321" y="654" type="curve"/>
    </contour>
  </outline>
</glyph>
<glyph name="ccaron" format="1">
  <advance width="436"/>
  <unicode hex="010D"/>
  <outline>
    <contour>
      <point x="349" y="350" type="move"/>
      <point x="322" y="359"/>
      <point x="289" y="365"/>
      <point x="260" y="365" type="curve" smooth="yes"/>
      <point x="142" y="365"/>
      <point x="74" y="289"/>
      <point x="74" y="185" type="curve" smooth="yes"/>
      <point x="74" y="94"/>
      <point x="140" y="23"/>
      <point x="259" y="23" type="curve" smooth="yes"/>
      <point x="300" y="23"/>
      <point x="333" y="31"/>
      <point x="361" y="42" type="curve"/>
    </contour>
    <contour>
      <point x="154" y="588" type="move"/>
      <point x="180" y="562"/>
      <point x="216" y="525"/>
      <point x="240" y="501" type="curve"/>
    </contour>
    <contour>
      <point x="246" y="501" type="move"/>
      <point x="269" y="524"/>
      <point x="306" y="562"/>
      <point x="332" y="588" type="curve"/>
    </contour>
  </outline>
</glyph>
<glyph name="Dcaron" format="1">
  <advance width="612"/>
  <unicode hex="010E"/>
  <outline>
    <contour>
      <point x="299" y="23" type="line" smooth="yes"/>
      <point x="437" y="23"/>
      <point x="526" y="131"/>
      <point x="526" y="266" type="curve" smooth="yes"/>
      <point x="526" y="408"/>
      <point x="419" y="508"/>
      <point x="299" y="508" type="curve" smooth="yes"/>
      <point x="123" y="508" type="line"/>
      <point x="123" y="23" type="line"/>
    </contour>
    <contour>
      <point x="275" y="654" type="move"/>
      <point x="308" y="678"/>
      <point x="343" y="702"/>
      <point x="371" y="723" type="curve"/>
    </contour>
    <contour>
      <point x="172" y="723" type="move"/>
      <point x="200" y="702"/>
      <point x="234" y="678"/>
      <point x="268" y="654" type="curve"/>
    </contour>
  </outline>
</glyph>
<glyph name="dcaron" format="1">
  <advance width="631"/>
  <unicode hex="010F"/>
  <outline>
    <contour>
      <point x="586" y="561" type="move"/>
      <point x="566" y="422" type="line"/>
    </contour>
    <contour>
      <point x="395" y="306" type="move"/>
      <point x="350" y="343"/>
      <point x="305" y="365"/>
      <point x="245" y="365" type="curve" smooth="yes"/>
      <point x="147" y="365"/>
      <point x="74" y="290"/>
      <point x="74" y="186" type="curve" smooth="yes"/>
      <point x="74" y="87"/>
      <point x="139" y="23"/>
      <point x="224" y="23" type="curve" smooth="yes"/>
      <point x="300" y="23"/>
      <point x="355" y="74"/>
      <point x="394" y="140" type="curve"/>
    </contour>
    <contour>
      <point x="395" y="534" type="move"/>
      <point x="395" y="23" type="line" smooth="yes"/>
    </contour>
  </outline>
</glyph>
<glyph name="Dcroat" format="1">
  <advance width="627"/>
  <unicode hex="0110"/>
  <outline>
    <contour>
      <point x="64" y="270" type="move"/>
      <point x="310" y="270" type="line"/>
    </contour>
    <contour>
      <point x="314" y="23" type="line" smooth="yes"/>
      <point x="452" y="23"/>
      <point x="541" y="131"/>
      <point x="541" y="266" type="curve" smooth="yes"/>
      <point x="541" y="408"/>
      <point x="434" y="508"/>
      <point x="314" y="508" type="curve" smooth="yes"/>
      <point x="138" y="508" type="line"/>
      <point x="138" y="23" type="line"/>
    </contour>
  </outline>
</glyph>
<glyph name="dcroat" format="1">
  <advance width="507"/>
  <unicode hex="0111"/>
  <outline>
    <contour>
      <point x="395" y="306" type="move"/>
      <point x="350" y="343"/>
      <point x="305" y="365"/>
      <point x="245" y="365" type="curve" smooth="yes"/>
      <point x="147" y="365"/>
      <point x="74" y="290"/>
      <point x="74" y="186" type="curve" smooth="yes"/>
      <point x="74" y="87"/>
      <point x="139" y="23"/>
      <point x="224" y="23" type="curve" smooth="yes"/>
      <point x="300" y="23"/>
      <point x="355" y="74"/>
      <point x="394" y="140" type="curve"/>
    </contour>
    <contour>
      <point x="395" y="534" type="move"/>
      <point x="395" y="23" type="line" smooth="yes"/>
    </contour>
    <contour>
      <point x="450" y="473" type="move"/>
      <point x="286" y="473" type="line"/>
    </contour>
  </outline>
</glyph>
<glyph name="Emacron" format="1">
  <advance width="487"/>
  <unicode hex="0112"/>
  <outline>
    <contour>
      <point x="123" y="508" type="move"/>
      <point x="123" y="23" type="line"/>
    </contour>
    <contour>
      <point x="131" y="23" type="move"/>
      <point x="402" y="23" type="line"/>
    </contour>
    <contour>
      <point x="131" y="508" type="move"/>
      <point x="400" y="508" type="line"/>
    </contour>
    <contour>
      <point x="131" y="284" type="move"/>
      <point x="357" y="284" type="line"/>
    </contour>
    <contour>
      <point x="361" y="684" type="move"/>
      <point x="132" y="684" type="line"/>
    </contour>
  </outline>
</glyph>
<glyph name="Edotaccent" format="1">
  <advance width="487"/>
  <unicode hex="0116"/>
  <outline>
    <contour>
      <point x="123" y="508" type="move"/>
      <point x="123" y="23" type="line"/>
    </contour>
    <contour>
      <point x="131" y="23" type="move"/>
      <point x="402" y="23" type="line"/>
    </contour>
    <contour>
      <point x="131" y="508" type="move"/>
      <point x="400" y="508" type="line"/>
    </contour>
    <contour>
      <point x="131" y="284" type="move"/>
      <point x="357" y="284" type="line"/>
    </contour>
    <contour>
      <point x="259" y="715" type="curve" smooth="yes"/>
      <point x="246" y="715"/>
      <point x="238" y="701"/>
      <point x="238" y="687" type="curve" smooth="yes"/>
      <point x="238" y="674"/>
      <point x="246" y="662"/>
      <point x="259" y="662" type="curve" smooth="yes"/>
      <point x="270" y="662"/>
      <point x="277" y="674"/>
      <point x="277" y="687" type="curve" smooth="yes"/>
      <point x="277" y="701"/>
      <point x="270" y="715"/>
    </contour>
  </outline>
</glyph>
<glyph name="edotaccent" format="1">
  <advance width="460"/>
  <unicode hex="0117"/>
  <outline>
    <contour>
      <point x="87" y="193" type="move"/>
      <point x="296" y="193" type="line" smooth="yes"/>
      <point x="356" y="193"/>
      <point x="378" y="217"/>
      <point x="378" y="255" type="curve" smooth="yes"/>
      <point x="378" y="303"/>
      <point x="325" y="365"/>
      <point x="242" y="365" type="curve" smooth="yes"/>
      <point x="149" y="365"/>
      <point x="74" y="294"/>
      <point x="74" y="189" type="curve" smooth="yes"/>
      <point x="74" y="81"/>
      <point x="151" y="23"/>
      <point x="262" y="23" type="curve" smooth="yes"/>
      <point x="298" y="23"/>
      <point x="333" y="31"/>
      <point x="359" y="41" type="curve"/>
      <point x="359" y="41"/>
    </contour>
    <contour>
      <point x="230" y="572" type="curve" smooth="yes"/>
      <point x="218" y="572"/>
      <point x="211" y="559"/>
      <point x="211" y="546" type="curve" smooth="yes"/>
      <point x="211" y="533"/>
      <point x="218" y="522"/>
      <point x="230" y="522" type="curve" smooth="yes"/>
      <point x="241" y="522"/>
      <point x="247" y="533"/>
      <point x="247" y="546" type="curve" smooth="yes"/>
      <point x="247" y="559"/>
      <point x="241" y="572"/>
    </contour>
  </outline>
</glyph>
<glyph name="Eogonek" format="1">
  <advance width="487"/>
  <unicode hex="0118"/>
  <outline>
    <contour>
      <point x="123" y="508" type="move"/>
      <point x="123" y="23" type="line"/>
    </contour>
    <contour>
      <point x="131" y="23" type="move"/>
      <point x="402" y="23" type="line"/>
    </contour>
    <contour>
      <point x="131" y="508" type="move"/>
      <point x="400" y="508" type="line"/>
    </contour>
    <contour>
      <point x="131" y="284" type="move"/>
      <point x="357" y="284" type="line"/>
    </contour>
    <contour>
      <point x="406" y="24" type="move"/>
      <point x="406" y="-11" type="line"/>
      <point x="320" y="-81"/>
      <point x="303" y="-109"/>
      <point x="303" y="-136" type="curve" smooth="yes"/>
      <point x="303" y="-171"/>
      <point x="343" y="-196"/>
      <point x="421" y="-196" type="curve"/>
    </contour>
  </outline>
</glyph>
<glyph name="eogonek" format="1">
  <advance width="460"/>
  <unicode hex="0119"/>
  <outline>
    <contour>
      <point x="87" y="193" type="move"/>
      <point x="296" y="193" type="line" smooth="yes"/>
      <point x="356" y="193"/>
      <point x="378" y="217"/>
      <point x="378" y="255" type="curve" smooth="yes"/>
      <point x="378" y="303"/>
      <point x="325" y="365"/>
      <point x="242" y="365" type="curve" smooth="yes"/>
      <point x="149" y="365"/>
      <point x="74" y="294"/>
      <point x="74" y="189" type="curve" smooth="yes"/>
      <point x="74" y="81"/>
      <point x="151" y="23"/>
      <point x="262" y="23" type="curve" smooth="yes"/>
      <point x="298" y="23"/>
      <point x="333" y="31"/>
      <point x="359" y="41" type="curve"/>
      <point x="359" y="41"/>
    </contour>
    <contour>
      <point x="359" y="29" type="move"/>
      <point x="359" y="-6" type="line"/>
      <point x="273" y="-76"/>
      <point x="256" y="-104"/>
      <point x="256" y="-131" type="curve" smooth="yes"/>
      <point x="256" y="-166"/>
      <point x="296" y="-191"/>
      <point x="374" y="-191" type="curve"/>
    </contour>
  </outline>
</glyph>
<glyph name="Ecaron" format="1">
  <advance width="487"/>
  <unicode hex="011A"/>
  <outline>
    <contour>
      <point x="123" y="508" type="move"/>
      <point x="123" y="23" type="line"/>
    </contour>
    <contour>
      <point x="131" y="23" type="move"/>
      <point x="402" y="23" type="line"/>
    </contour>
    <contour>
      <point x="131" y="508" type="move"/>
      <point x="400" y="508" type="line"/>
    </contour>
    <contour>
      <point x="131" y="284" type="move"/>
      <point x="357" y="284" type="line"/>
    </contour>
    <contour>
      <point x="256" y="654" type="move"/>
      <point x="289" y="678"/>
      <point x="324" y="702"/>
      <point x="352" y="723" type="curve"/>
    </contour>
    <contour>
      <point x="153" y="723" type="move"/>
      <point x="181" y="702"/>
      <point x="215" y="678"/>
      <point x="249" y="654" type="curve"/>
    </contour>
  </outline>
</glyph>
<glyph name="ecaron" format="1">
  <advance width="460"/>
  <unicode hex="011B"/>
  <outline>
    <contour>
      <point x="87" y="193" type="move"/>
      <point x="296" y="193" type="line" smooth="yes"/>
      <point x="356" y="193"/>
      <point x="378" y="217"/>
      <point x="378" y="255" type="curve" smooth="yes"/>
      <point x="378" y="303"/>
      <point x="325" y="365"/>
      <point x="242" y="365" type="curve" smooth="yes"/>
      <point x="149" y="365"/>
      <point x="74" y="294"/>
      <point x="74" y="189" type="curve" smooth="yes"/>
      <point x="74" y="81"/>
      <point x="151" y="23"/>
      <point x="262" y="23" type="curve" smooth="yes"/>
      <point x="298" y="23"/>
      <point x="333" y="31"/>
      <point x="359" y="41" type="curve"/>
      <point x="359" y="41"/>
    </contour>
    <contour>
      <point x="142" y="588" type="move"/>
      <point x="168" y="562"/>
      <point x="204" y="525"/>
      <point x="228" y="501" type="curve"/>
    </contour>
    <contour>
      <point x="234" y="501" type="move"/>
      <point x="257" y="524"/>
      <point x="294" y="562"/>
      <point x="320" y="588" type="curve"/>
    </contour>
  </outline>
</glyph>
<glyph name="gbreve" format="1">
  <advance width="503"/>
  <unicode hex="011F"/>
  <outline>
    <contour>
      <point x="393" y="328" type="move"/>
      <point x="341" y="353"/>
      <point x="306" y="365"/>
      <point x="250" y="365" type="curve" smooth="yes"/>
      <point x="161" y="365"/>
      <point x="74" y="295"/>
      <point x="74" y="185" type="curve" smooth="yes"/>
      <point x="74" y="80"/>
      <point x="145" y="35"/>
      <point x="216" y="35" type="curve" smooth="yes"/>
      <point x="282" y="35"/>
      <point x="348" y="72"/>
      <point x="392" y="142" type="curve"/>
    </contour>
    <contour>
      <point x="162" y="-158" type="move"/>
      <point x="322" y="-158"/>
      <point x="393" y="-68"/>
      <point x="393" y="69" type="curve" smooth="yes"/>
      <point x="393" y="365" type="line"/>
    </contour>
    <contour>
      <point x="146" y="577" type="move"/>
      <point x="170" y="541"/>
      <point x="206" y="516"/>
      <point x="248" y="516" type="curve" smooth="yes"/>
      <point x="295" y="516"/>
      <point x="324" y="540"/>
      <point x="347" y="577" type="curve"/>
    </contour>
  </outline>
</glyph>
<glyph name="Imacron" format="1">
  <advance width="256"/>
  <unicode hex="012A"/>
  <outline>
    <contour>
      <point x="128" y="508" type="move"/>
      <point x="128" y="23" type="line"/>
    </contour>
    <contour>
      <point x="221" y="684" type="move"/>
      <point x="36" y="684" type="line"/>
    </contour>
  </outline>
</glyph>
<glyph name="imacron" format="1">
  <advance width="207"/>
  <unicode hex="012B"/>
  <outline>
    <contour>
      <point x="103" y="23" type="move"/>
      <point x="103" y="365" type="line"/>
    </contour>
    <contour>
      <point x="173" y="537" type="move"/>
      <point x="33" y="537" type="line"/>
    </contour>
  </outline>
</glyph>
<glyph name="Iogonek" format="1">
  <advance width="256"/>
  <unicode hex="012E"/>
  <outline>
    <contour>
      <point x="128" y="508" type="move"/>
      <point x="128" y="23" type="line"/>
    </contour>
    <contour>
      <point x="128" y="23" type="move"/>
      <point x="128" y="-12" type="line"/>
      <point x="42" y="-82"/>
      <point x="25" y="-110"/>
      <point x="25" y="-137" type="curve" smooth="yes"/>
      <point x="25" y="-172"/>
      <point x="65" y="-197"/>
      <point x="143" y="-197" type="curve"/>
    </contour>
  </outline>
</glyph>
<glyph name="iogonek" format="1">
  <advance width="207"/>
  <unicode hex="012F"/>
  <outline>
    <contour>
      <point x="116" y="23" type="move"/>
      <point x="116" y="365" type="line"/>
    </contour>
    <contour>
      <point x="116" y="573" type="curve" smooth="yes"/>
      <point x="104" y="573"/>
      <point x="98" y="560"/>
      <point x="98" y="547" type="curve" smooth="yes"/>
      <point x="98" y="534"/>
      <point x="105" y="523"/>
      <point x="117" y="523" type="curve" smooth="yes"/>
      <point x="128" y="523"/>
      <point x="134" y="534"/>
      <point x="134" y="547" type="curve" smooth="yes"/>
      <point x="134" y="560"/>
      <point x="128" y="573"/>
    </contour>
    <contour>
      <point x="116" y="22" type="move"/>
      <point x="116" y="-13" type="line"/>
      <point x="30" y="-83"/>
      <point x="13" y="-111"/>
      <point x="13" y="-138" type="curve" smooth="yes"/>
      <point x="13" y="-173"/>
      <point x="53" y="-198"/>
      <point x="131" y="-198" type="curve"/>
    </contour>
  </outline>
</glyph>
<glyph name="Idotaccent" format="1">
  <advance width="256"/>
  <unicode hex="0130"/>
  <outline>
    <contour>
      <point x="128" y="508" type="move"/>
      <point x="128" y="23" type="line"/>
    </contour>
    <contour>
      <point x="129" y="715" type="curve" smooth="yes"/>
      <point x="116" y="715"/>
      <point x="108" y="701"/>
      <point x="108" y="687" type="curve" smooth="yes"/>
      <point x="108" y="674"/>
      <point x="116" y="662"/>
      <point x="129" y="662" type="curve" smooth="yes"/>
      <point x="140" y="662"/>
      <point x="147" y="674"/>
      <point x="147" y="687" type="curve" smooth="yes"/>
      <point x="147" y="701"/>
      <point x="140" y="715"/>
    </contour>
  </outline>
</glyph>
<glyph name="Lacute" format="1">
  <advance width="459"/>
  <unicode hex="0139"/>
  <outline>
    <contour>
      <point x="123" y="508" type="move"/>
      <point x="123" y="23" type="line"/>
    </contour>
    <contour>
      <point x="131" y="23" type="move"/>
      <point x="394" y="23" type="line"/>
    </contour>
    <contour>
      <point x="349" y="715" type="move"/>
      <point x="303" y="688"/>
      <point x="255" y="657"/>
      <point x="226" y="636" type="curve"/>
    </contour>
  </outline>
</glyph>
<glyph name="lacute" format="1">
  <advance width="232"/>
  <unicode hex="013A"/>
  <outline>
    <contour>
      <point x="116" y="23" type="move"/>
      <point x="116" y="534" type="line"/>
    </contour>
    <contour>
      <point x="193" y="742" type="move"/>
      <point x="165" y="711"/>
      <point x="138" y="679"/>
      <point x="112" y="648" type="curve"/>
    </contour>
  </outline>
</glyph>
<glyph name="uni013B" format="1">
  <advance width="469"/>
  <unicode hex="013B"/>
  <outline>
    <contour>
      <point x="123" y="508" type="move"/>
      <point x="123" y="23" type="line"/>
    </contour>
    <contour>
      <point x="131" y="23" type="move"/>
      <point x="394" y="23" type="line"/>
    </contour>
    <contour>
      <point x="264" y="-104" type="move"/>
      <point x="270" y="-115"/>
      <point x="273" y="-128"/>
      <point x="273" y="-141" type="curve" smooth="yes"/>
      <point x="273" y="-179"/>
      <point x="243" y="-213"/>
      <point x="196" y="-235" type="curve"/>
    </contour>
  </outline>
</glyph>
<glyph name="uni013C" format="1">
  <advance width="232"/>
  <unicode hex="013C"/>
  <outline>
    <contour>
      <point x="116" y="23" type="move"/>
      <point x="116" y="534" type="line"/>
    </contour>
    <contour>
      <point x="115" y="-104" type="move"/>
      <point x="121" y="-115"/>
      <point x="124" y="-128"/>
      <point x="124" y="-141" type="curve" smooth="yes"/>
      <point x="124" y="-179"/>
      <point x="94" y="-213"/>
      <point x="47" y="-235" type="curve"/>
    </contour>
  </outline>
</glyph>
<glyph name="Nacute" format="1">
  <advance width="635"/>
  <unicode hex="0143"/>
  <outline>
    <contour>
      <point x="123" y="508" type="move"/>
      <point x="123" y="23" type="line"/>
    </contour>
    <contour>
      <point x="512" y="508" type="move"/>
      <point x="512" y="23" type="line"/>
    </contour>
    <contour>
      <point x="129" y="508" type="move"/>
      <point x="204" y="408"/>
      <point x="399" y="166"/>
      <point x="506" y="23" type="curve"/>
    </contour>
    <contour>
      <point x="448" y="705" type="move"/>
      <point x="402" y="678"/>
      <point x="354" y="647"/>
      <point x="325" y="626" type="curve"/>
    </contour>
  </outline>
</glyph>
<glyph name="Ncaron" format="1">
  <advance width="635"/>
  <unicode hex="0147"/>
  <outline>
    <contour>
      <point x="123" y="508" type="move"/>
      <point x="123" y="23" type="line"/>
    </contour>
    <contour>
      <point x="512" y="508" type="move"/>
      <point x="512" y="23" type="line"/>
    </contour>
    <contour>
      <point x="129" y="508" type="move"/>
      <point x="204" y="408"/>
      <point x="399" y="166"/>
      <point x="506" y="23" type="curve"/>
    </contour>
    <contour>
      <point x="318" y="634" type="move"/>
      <point x="351" y="658"/>
      <point x="386" y="682"/>
      <point x="414" y="703" type="curve"/>
    </contour>
    <contour>
      <point x="215" y="703" type="move"/>
      <point x="243" y="682"/>
      <point x="277" y="658"/>
      <point x="311" y="634" type="curve"/>
    </contour>
  </outline>
</glyph>
<glyph name="ncaron" format="1">
  <advance width="497"/>
  <unicode hex="0148"/>
  <outline>
    <contour>
      <point x="110" y="23" type="move"/>
      <point x="110" y="365" type="line"/>
    </contour>
    <contour>
      <point x="397" y="23" type="move"/>
      <point x="397" y="223" type="line" smooth="yes"/>
      <point x="397" y="328"/>
      <point x="349" y="365"/>
      <point x="285" y="365" type="curve" smooth="yes"/>
      <point x="222" y="365"/>
      <point x="162" y="326"/>
      <point x="114" y="278" type="curve"/>
    </contour>
    <contour>
      <point x="149" y="588" type="move"/>
      <point x="175" y="562"/>
      <point x="211" y="525"/>
      <point x="235" y="501" type="curve"/>
    </contour>
    <contour>
      <point x="241" y="501" type="move"/>
      <point x="264" y="524"/>
      <point x="301" y="562"/>
      <point x="327" y="588" type="curve"/>
    </contour>
  </outline>
</glyph>
<glyph name="Ohungarumlaut" format="1">
  <advance width="640"/>
  <unicode hex="0150"/>
  <outline>
    <contour>
      <point x="322" y="517" type="curve" smooth="yes"/>
      <point x="181" y="517"/>
      <point x="86" y="413"/>
      <point x="86" y="262" type="curve" smooth="yes"/>
      <point x="86" y="124"/>
      <point x="183" y="14"/>
      <point x="322" y="14" type="curve" smooth="yes"/>
      <point x="469" y="14"/>
      <point x="554" y="124"/>
      <point x="554" y="265" type="curve" smooth="yes"/>
      <point x="554" y="413"/>
      <point x="451" y="517"/>
    </contour>
    <contour>
      <point x="260" y="739" type="move"/>
      <point x="238" y="704"/>
      <point x="223" y="674"/>
      <point x="211" y="644" type="curve"/>
    </contour>
    <contour>
      <point x="465" y="739" type="move"/>
      <point x="443" y="704"/>
      <point x="428" y="674"/>
      <point x="416" y="644" type="curve"/>
    </contour>
  </outline>
</glyph>
<glyph name="ohungarumlaut" format="1">
  <advance width="495"/>
  <unicode hex="0151"/>
  <outline>
    <contour>
      <point x="247" y="369" type="curve" smooth="yes"/>
      <point x="139" y="369"/>
      <point x="73" y="288"/>
      <point x="73" y="191" type="curve" smooth="yes"/>
      <point x="73" y="94"/>
      <point x="141" y="19"/>
      <point x="247" y="19" type="curve" smooth="yes"/>
      <point x="353" y="19"/>
      <point x="421" y="93"/>
      <point x="421" y="189" type="curve" smooth="yes"/>
      <point x="421" y="288"/>
      <point x="354" y="369"/>
    </contour>
    <contour>
      <point x="202" y="590" type="move"/>
      <point x="180" y="555"/>
      <point x="165" y="525"/>
      <point x="153" y="495" type="curve"/>
    </contour>
    <contour>
      <point x="367" y="590" type="move"/>
      <point x="345" y="555"/>
      <point x="330" y="525"/>
      <point x="318" y="495" type="curve"/>
    </contour>
  </outline>
</glyph>
<glyph name="oe" format="1">
  <advance width="807"/>
  <unicode hex="0153"/>
  <outline>
    <contour>
      <point x="247" y="369" type="curve" smooth="yes"/>
      <point x="139" y="369"/>
      <point x="73" y="288"/>
      <point x="73" y="191" type="curve" smooth="yes"/>
      <point x="73" y="94"/>
      <point x="141" y="19"/>
      <point x="247" y="19" type="curve" smooth="yes"/>
      <point x="353" y="19"/>
      <point x="421" y="93"/>
      <point x="421" y="189" type="curve" smooth="yes"/>
      <point x="421" y="288"/>
      <point x="354" y="369"/>
    </contour>
    <contour>
      <point x="432" y="193" type="move"/>
      <point x="641" y="193" type="line" smooth="yes"/>
      <point x="701" y="193"/>
      <point x="723" y="217"/>
      <point x="723" y="255" type="curve" smooth="yes"/>
      <point x="723" y="303"/>
      <point x="670" y="365"/>
      <point x="587" y="365" type="curve" smooth="yes"/>
      <point x="494" y="365"/>
      <point x="419" y="294"/>
      <point x="419" y="189" type="curve" smooth="yes"/>
      <point x="419" y="81"/>
      <point x="496" y="23"/>
      <point x="607" y="23" type="curve" smooth="yes"/>
      <point x="643" y="23"/>
      <point x="678" y="31"/>
      <point x="704" y="41" type="curve"/>
      <point x="704" y="41"/>
    </contour>
  </outline>
</glyph>
<glyph name="racute" format="1">
  <advance width="346"/>
  <unicode hex="0155"/>
  <outline>
    <contour>
      <point x="110" y="23" type="move"/>
      <point x="110" y="365" type="line"/>
    </contour>
    <contour>
      <point x="111" y="234" type="move"/>
      <point x="158" y="307"/>
      <point x="214" y="354"/>
      <point x="302" y="365" type="curve"/>
    </contour>
    <contour>
      <point x="261" y="597" type="move"/>
      <point x="233" y="566"/>
      <point x="206" y="534"/>
      <point x="180" y="503" type="curve"/>
    </contour>
  </outline>
</glyph>
<glyph name="Rcaron" format="1">
  <advance width="541"/>
  <unicode hex="0158"/>
  <outline>
    <contour>
      <point x="139" y="222" type="move"/>
      <point x="270" y="222" type="line" smooth="yes"/>
      <point x="381" y="222"/>
      <point x="436" y="287"/>
      <point x="436" y="365" type="curve" smooth="yes"/>
      <point x="436" y="449"/>
      <point x="370" y="508"/>
      <point x="270" y="508" type="curve" smooth="yes"/>
      <point x="123" y="508" type="line"/>
      <point x="123" y="23" type="line"/>
    </contour>
    <contour>
      <point x="299" y="216" type="move"/>
      <point x="464" y="23" type="line"/>
    </contour>
    <contour>
      <point x="257" y="654" type="move"/>
      <point x="290" y="678"/>
      <point x="325" y="702"/>
      <point x="353" y="723" type="curve"/>
    </contour>
    <contour>
      <point x="154" y="723" type="move"/>
      <point x="182" y="702"/>
      <point x="216" y="678"/>
      <point x="250" y="654" type="curve"/>
    </contour>
  </outline>
</glyph>
<glyph name="rcaron" format="1">
  <advance width="346"/>
  <unicode hex="0159"/>
  <outline>
    <contour>
      <point x="110" y="23" type="move"/>
      <point x="110" y="365" type="line"/>
    </contour>
    <contour>
      <point x="111" y="234" type="move"/>
      <point x="158" y="307"/>
      <point x="214" y="354"/>
      <point x="302" y="365" type="curve"/>
    </contour>
    <contour>
      <point x="101" y="588" type="move"/>
      <point x="127" y="562"/>
      <point x="163" y="525"/>
      <point x="187" y="501" type="curve"/>
    </contour>
    <contour>
      <point x="193" y="501" type="move"/>
      <point x="216" y="524"/>
      <point x="253" y="562"/>
      <point x="279" y="588" type="curve"/>
    </contour>
  </outline>
</glyph>
<glyph name="Scaron" format="1">
  <advance width="525"/>
  <unicode hex="0160"/>
  <outline>
    <contour>
      <point x="393" y="484" type="move"/>
      <point x="346" y="503"/>
      <point x="312" y="514"/>
      <point x="243" y="514" type="curve" smooth="yes"/>
      <point x="158" y="514"/>
      <point x="107" y="463"/>
      <point x="107" y="410" type="curve" smooth="yes"/>
      <point x="107" y="360"/>
      <point x="130" y="304"/>
      <point x="264" y="278" type="curve" smooth="yes"/>
      <point x="386" y="251"/>
      <point x="427" y="200"/>
      <point x="427" y="136" type="curve" smooth="yes"/>
      <point x="427" y="72"/>
      <point x="377" y="14"/>
      <point x="263" y="14" type="curve" smooth="yes"/>
      <point x="203" y="14"/>
      <point x="146" y="28"/>
      <point x="94" y="57" type="curve"/>
    </contour>
    <contour>
      <point x="258" y="654" type="move"/>
      <point x="291" y="678"/>
      <point x="326" y="702"/>
      <point x="354" y="723" type="curve"/>
    </contour>
    <contour>
      <point x="155" y="723" type="move"/>
      <point x="183" y="702"/>
      <point x="217" y="678"/>
      <point x="251" y="654" type="curve"/>
    </contour>
  </outline>
</glyph>
<glyph name="scaron" format="1">
  <advance width="450"/>
  <unicode hex="0161"/>
  <outline>
    <contour>
      <point x="336" y="353" type="move"/>
      <point x="307" y="361"/>
      <point x="269" y="368"/>
      <point x="227" y="368" type="curve" smooth="yes"/>
      <point x="134" y="368"/>
      <point x="99" y="325"/>
      <point x="99" y="284" type="curve" smooth="yes"/>
      <point x="99" y="247"/>
      <point x="129" y="214"/>
      <point x="219" y="205" type="curve" smooth="yes"/>
      <point x="259" y="201" type="line" smooth="yes"/>
      <point x="337" y="193"/>
      <point x="369" y="153"/>
      <point x="369" y="109" type="curve" smooth="yes"/>
      <point x="369" y="63"/>
      <point x="332" y="19"/>
      <point x="233" y="19" type="curve" smooth="yes"/>
      <point x="186" y="19"/>
      <point x="137" y="28"/>
      <point x="93" y="47" type="curve"/>
    </contour>
    <contour>
      <point x="128" y="588" type="move"/>
      <point x="154" y="562"/>
      <point x="190" y="525"/>
      <point x="214" y="501" type="curve"/>
    </contour>
    <contour>
      <point x="220" y="501" type="move"/>
      <point x="243" y="524"/>
      <point x="280" y="562"/>
      <point x="306" y="588" type="curve"/>
    </contour>
  </outline>
</glyph>
<glyph name="tcaron" format="1">
  <advance width="354"/>
  <unicode hex="0165"/>
  <outline>
    <contour>
      <point x="300" y="628" type="move"/>
      <point x="278" y="501" type="line"/>
    </contour>
    <contour>
      <point x="134" y="491" type="move"/>
      <point x="134" y="140" type="line" smooth="yes"/>
      <point x="134" y="66"/>
      <point x="178" y="25"/>
      <point x="279" y="23" type="curve"/>
    </contour>
    <contour>
      <point x="46" y="365" type="move"/>
      <point x="292" y="365" type="line"/>
    </contour>
  </outline>
</glyph>
<glyph name="Umacron" format="1">
  <advance width="616"/>
  <unicode hex="016A"/>
  <outline>
    <contour>
      <point x="111" y="508" type="move"/>
      <point x="111" y="212" type="line" smooth="yes"/>
      <point x="111" y="85"/>
      <point x="191" y="14"/>
      <point x="306" y="14" type="curve" smooth="yes"/>
      <point x="433" y="14"/>
      <point x="505" y="85"/>
      <point x="505" y="215" type="curve" smooth="yes"/>
      <point x="505" y="508" type="line"/>
    </contour>
    <contour>
      <point x="418" y="684" type="move"/>
      <point x="189" y="684" type="line"/>
    </contour>
  </outline>
</glyph>
<glyph name="umacron" format="1">
  <advance width="497"/>
  <unicode hex="016B"/>
  <outline>
    <contour>
      <point x="387" y="365" type="move"/>
      <point x="387" y="23" type="line"/>
    </contour>
    <contour>
      <point x="100" y="365" type="move"/>
      <point x="100" y="165" type="line" smooth="yes"/>
      <point x="100" y="60"/>
      <point x="148" y="23"/>
      <point x="212" y="23" type="curve" smooth="yes"/>
      <point x="275" y="23"/>
      <point x="341" y="72"/>
      <point x="383" y="130" type="curve"/>
    </contour>
    <contour>
      <point x="335" y="537" type="move"/>
      <point x="134" y="537" type="line"/>
    </contour>
  </outline>
</glyph>
<glyph name="Uring" format="1">
  <advance width="616"/>
  <unicode hex="016E"/>
  <outline>
    <contour>
      <point x="111" y="508" type="move"/>
      <point x="111" y="212" type="line" smooth="yes"/>
      <point x="111" y="85"/>
      <point x="191" y="14"/>
      <point x="306" y="14" type="curve" smooth="yes"/>
      <point x="433" y="14"/>
      <point x="505" y="85"/>
      <point x="505" y="215" type="curve" smooth="yes"/>
      <point x="505" y="508" type="line"/>
    </contour>
    <contour>
      <point x="394" y="616" type="curve" smooth="yes"/>
      <point x="394" y="657"/>
      <point x="361" y="694"/>
      <point x="307" y="694" type="curve" smooth="yes"/>
      <point x="255" y="694"/>
      <point x="223" y="654"/>
      <point x="223" y="616" type="curve" smooth="yes"/>
      <point x="223" y="578"/>
      <point x="255" y="538"/>
      <point x="307" y="538" type="curve" smooth="yes"/>
      <point x="361" y="538"/>
      <point x="394" y="575"/>
    </contour>
  </outline>
</glyph>
<glyph name="uring" format="1">
  <advance width="497"/>
  <unicode hex="016F"/>
  <outline>
    <contour>
      <point x="387" y="365" type="move"/>
      <point x="387" y="23" type="line"/>
    </contour>
    <contour>
      <point x="100" y="365" type="move"/>
      <point x="100" y="165" type="line" smooth="yes"/>
      <point x="100" y="60"/>
      <point x="148" y="23"/>
      <point x="212" y="23" type="curve" smooth="yes"/>
      <point x="275" y="23"/>
      <point x="341" y="72"/>
      <point x="383" y="130" type="curve"/>
    </contour>
    <contour>
      <point x="329" y="509" type="curve" smooth="yes"/>
      <point x="329" y="550"/>
      <point x="296" y="587"/>
      <point x="242" y="587" type="curve" smooth="yes"/>
      <point x="190" y="587"/>
      <point x="158" y="547"/>
      <point x="158" y="509" type="curve" smooth="yes"/>
      <point x="158" y="471"/>
      <point x="190" y="431"/>
      <point x="242" y="431" type="curve" smooth="yes"/>
      <point x="296" y="431"/>
      <point x="329" y="468"/>
    </contour>
  </outline>
</glyph>
<glyph name="Uhungarumlaut" format="1">
  <advance width="616"/>
  <unicode hex="0170"/>
  <outline>
    <contour>
      <point x="111" y="508" type="move"/>
      <point x="111" y="212" type="line" smooth="yes"/>
      <point x="111" y="85"/>
      <point x="191" y="14"/>
      <point x="306" y="14" type="curve" smooth="yes"/>
      <point x="433" y="14"/>
      <point x="505" y="85"/>
      <point x="505" y="215" type="curve" smooth="yes"/>
      <point x="505" y="508" type="line"/>
    </contour>
    <contour>
      <point x="254" y="739" type="move"/>
      <point x="232" y="704"/>
      <point x="217" y="674"/>
      <point x="205" y="644" type="curve"/>
    </contour>
    <contour>
      <point x="459" y="739" type="move"/>
      <point x="437" y="704"/>
      <point x="422" y="674"/>
      <point x="410" y="644" type="curve"/>
    </contour>
  </outline>
</glyph>
<glyph name="Uogonek" format="1">
  <advance width="616"/>
  <unicode hex="0172"/>
  <outline>
    <contour>
      <point x="111" y="508" type="move"/>
      <point x="111" y="212" type="line" smooth="yes"/>
      <point x="111" y="85"/>
      <point x="191" y="14"/>
      <point x="306" y="14" type="curve" smooth="yes"/>
      <point x="433" y="14"/>
      <point x="505" y="85"/>
      <point x="505" y="215" type="curve" smooth="yes"/>
      <point x="505" y="508" type="line"/>
    </contour>
    <contour>
      <point x="328" y="15" type="move"/>
      <point x="328" y="-20" type="line"/>
      <point x="242" y="-90"/>
      <point x="225" y="-118"/>
      <point x="225" y="-145" type="curve" smooth="yes"/>
      <point x="225" y="-180"/>
      <point x="265" y="-205"/>
      <point x="343" y="-205" type="curve"/>
    </contour>
  </outline>
</glyph>
<glyph name="uogonek" format="1">
  <advance width="497"/>
  <unicode hex="0173"/>
  <outline>
    <contour>
      <point x="387" y="365" type="move"/>
      <point x="387" y="23" type="line"/>
    </contour>
    <contour>
      <point x="100" y="365" type="move"/>
      <point x="100" y="165" type="line" smooth="yes"/>
      <point x="100" y="60"/>
      <point x="148" y="23"/>
      <point x="212" y="23" type="curve" smooth="yes"/>
      <point x="275" y="23"/>
      <point x="341" y="72"/>
      <point x="383" y="130" type="curve"/>
    </contour>
    <contour>
      <point x="387" y="24" type="move"/>
      <point x="387" y="-11" type="line"/>
      <point x="301" y="-81"/>
      <point x="284" y="-109"/>
      <point x="284" y="-136" type="curve" smooth="yes"/>
      <point x="284" y="-171"/>
      <point x="324" y="-196"/>
      <point x="402" y="-196" type="curve"/>
    </contour>
  </outline>
</glyph>
<glyph name="Ydieresis" format="1">
  <advance width="560"/>
  <unicode hex="0178"/>
  <outline>
    <contour>
      <point x="282" y="191" type="move"/>
      <point x="282" y="23" type="line"/>
    </contour>
    <contour>
      <point x="74" y="508" type="move"/>
      <point x="116" y="438"/>
      <point x="236" y="260"/>
      <point x="279" y="203" type="curve"/>
    </contour>
    <contour>
      <point x="282" y="197" type="move"/>
      <point x="331" y="263"/>
      <point x="445" y="439"/>
      <point x="486" y="508" type="curve"/>
    </contour>
    <contour>
      <point x="187" y="696" type="curve" smooth="yes"/>
      <point x="176" y="696"/>
      <point x="169" y="683"/>
      <point x="169" y="670" type="curve" smooth="yes"/>
      <point x="169" y="656"/>
      <point x="176" y="644"/>
      <point x="187" y="644" type="curve" smooth="yes"/>
      <point x="197" y="644"/>
      <point x="203" y="656"/>
      <point x="203" y="670" type="curve" smooth="yes"/>
      <point x="203" y="683"/>
      <point x="197" y="696"/>
    </contour>
    <contour>
      <point x="380" y="696" type="curve" smooth="yes"/>
      <point x="369" y="696"/>
      <point x="363" y="683"/>
      <point x="363" y="670" type="curve" smooth="yes"/>
      <point x="363" y="656"/>
      <point x="369" y="644"/>
      <point x="380" y="644" type="curve" smooth="yes"/>
      <point x="390" y="644"/>
      <point x="396" y="656"/>
      <point x="396" y="670" type="curve" smooth="yes"/>
      <point x="396" y="683"/>
      <point x="390" y="696"/>
    </contour>
  </outline>
</glyph>
<glyph name="Zacute" format="1">
  <advance width="563"/>
  <unicode hex="0179"/>
  <outline>
    <contour>
      <point x="462" y="508" type="move"/>
      <point x="399" y="413"/>
      <point x="146" y="113"/>
      <point x="93" y="31" type="curve"/>
    </contour>
    <contour>
      <point x="102" y="508" type="move"/>
      <point x="451" y="508" type="line"/>
    </contour>
    <contour>
      <point x="89" y="23" type="move"/>
      <point x="474" y="23" type="line"/>
    </contour>
    <contour>
      <point x="412" y="725" type="move"/>
      <point x="366" y="698"/>
      <point x="318" y="667"/>
      <point x="289" y="646" type="curve"/>
    </contour>
  </outline>
</glyph>
<glyph name="zacute" format="1">
  <advance width="444"/>
  <unicode hex="017A"/>
  <outline>
    <contour>
      <point x="355" y="365" type="move"/>
      <point x="86" y="365" type="line"/>
    </contour>
    <contour>
      <point x="71" y="23" type="move"/>
      <point x="372" y="23" type="line"/>
    </contour>
    <contour>
      <point x="361" y="365" type="move"/>
      <point x="77" y="31" type="line"/>
    </contour>
    <contour>
      <point x="293" y="597" type="move"/>
      <point x="265" y="566"/>
      <point x="238" y="534"/>
      <point x="212" y="503" type="curve"/>
    </contour>
  </outline>
</glyph>
<glyph name="Zdotaccent" format="1">
  <advance width="563"/>
  <unicode hex="017B"/>
  <outline>
    <contour>
      <point x="462" y="508" type="move"/>
      <point x="399" y="413"/>
      <point x="146" y="113"/>
      <point x="93" y="31" type="curve"/>
    </contour>
    <contour>
      <point x="102" y="508" type="move"/>
      <point x="451" y="508" type="line"/>
    </contour>
    <contour>
      <point x="89" y="23" type="move"/>
      <point x="474" y="23" type="line"/>
    </contour>
    <contour>
      <point x="285" y="715" type="curve" smooth="yes"/>
      <point x="272" y="715"/>
      <point x="264" y="701"/>
      <point x="264" y="687" type="curve" smooth="yes"/>
      <point x="264" y="674"/>
      <point x="272" y="662"/>
      <point x="285" y="662" type="curve" smooth="yes"/>
      <point x="296" y="662"/>
      <point x="303" y="674"/>
      <point x="303" y="687" type="curve" smooth="yes"/>
      <point x="303" y="701"/>
      <point x="296" y="715"/>
    </contour>
  </outline>
</glyph>
<glyph name="zdotaccent" format="1">
  <advance width="444"/>
  <unicode hex="017C"/>
  <outline>
    <contour>
      <point x="355" y="365" type="move"/>
      <point x="86" y="365" type="line"/>
    </contour>
    <contour>
      <point x="71" y="23" type="move"/>
      <point x="372" y="23" type="line"/>
    </contour>
    <contour>
      <point x="361" y="365" type="move"/>
      <point x="77" y="31" type="line"/>
    </contour>
    <contour>
      <point x="220" y="572" type="curve" smooth="yes"/>
      <point x="208" y="572"/>
      <point x="201" y="559"/>
      <point x="201" y="546" type="curve" smooth="yes"/>
      <point x="201" y="533"/>
      <point x="208" y="522"/>
      <point x="220" y="522" type="curve" smooth="yes"/>
      <point x="231" y="522"/>
      <point x="237" y="533"/>
      <point x="237" y="546" type="curve" smooth="yes"/>
      <point x="237" y="559"/>
      <point x="231" y="572"/>
    </contour>
  </outline>
</glyph>
<glyph name="Zcaron" format="1">
  <advance width="563"/>
  <unicode hex="017D"/>
  <outline>
    <contour>
      <point x="462" y="508" type="move"/>
      <point x="399" y="413"/>
      <point x="146" y="113"/>
      <point x="93" y="31" type="curve"/>
    </contour>
    <contour>
      <point x="102" y="508" type="move"/>
      <point x="451" y="508" type="line"/>
    </contour>
    <contour>
      <point x="89" y="23" type="move"/>
      <point x="474" y="23" type="line"/>
    </contour>
    <contour>
      <point x="293" y="654" type="move"/>
      <point x="326" y="678"/>
      <point x="361" y="702"/>
      <point x="389" y="723" type="curve"/>
    </contour>
    <contour>
      <point x="190" y="723" type="move"/>
      <point x="218" y="702"/>
      <point x="252" y="678"/>
      <point x="286" y="654" type="curve"/>
    </contour>
  </outline>
</glyph>
<glyph name="zcaron" format="1">
  <advance width="444"/>
  <unicode hex="017E"/>
  <outline>
    <contour>
      <point x="355" y="365" type="move"/>
      <point x="86" y="365" type="line"/>
    </contour>
    <contour>
      <point x="71" y="23" type="move"/>
      <point x="372" y="23" type="line"/>
    </contour>
    <contour>
      <point x="361" y="365" type="move"/>
      <point x="77" y="31" type="line"/>
    </contour>
    <contour>
      <point x="122" y="588" type="move"/>
      <point x="148" y="562"/>
      <point x="184" y="525"/>
      <point x="208" y="501" type="curve"/>
    </contour>
    <contour>
      <point x="214" y="501" type="move"/>
      <point x="237" y="524"/>
      <point x="274" y="562"/>
      <point x="300" y="588" type="curve"/>
    </contour>
  </outline>
</glyph>
<glyph name="uni021A" format="1">
  <advance width="548"/>
  <unicode hex="021A"/>
  <outline>
    <contour>
      <point x="271" y="508" type="move"/>
      <point x="271" y="23" type="line"/>
    </contour>
    <contour>
      <point x="59" y="508" type="move"/>
      <point x="487" y="508" type="line"/>
    </contour>
    <contour>
      <point x="268" y="-123" type="move"/>
      <point x="241" y="-149"/>
      <point x="190" y="-200"/>
      <point x="167" y="-223" type="curve"/>
    </contour>
  </outline>
</glyph>
<glyph name="uni021B" format="1">
  <advance width="354"/>
  <unicode hex="021B"/>
  <outline>
    <contour>
      <point x="134" y="491" type="move"/>
      <point x="134" y="140" type="line" smooth="yes"/>
      <point x="134" y="66"/>
      <point x="178" y="25"/>
      <point x="279" y="23" type="curve"/>
    </contour>
    <contour>
      <point x="46" y="365" type="move"/>
      <point x="292" y="365" type="line"/>
    </contour>
    <contour>
      <point x="208" y="-123" type="move"/>
      <point x="181" y="-149"/>
      <point x="130" y="-200"/>
      <point x="107" y="-223" type="curve"/>
    </contour>
  </outline>
</glyph>
<glyph name="ellipsis" format="1">
  <advance width="691"/>
  <unicode hex="2026"/>
  <outline>
    <contour>
      <point x="113" y="76" type="curve" smooth="yes"/>
      <point x="98" y="76"/>
      <point x="93" y="61"/>
      <point x="93" y="47" type="curve" smooth="yes"/>
      <point x="93" y="30"/>
      <point x="102" y="18"/>
      <point x="114" y="18" type="curve" smooth="yes"/>
      <point x="128" y="18"/>
      <point x="134" y="30"/>
      <point x="134" y="47" type="curve" smooth="yes"/>
      <point x="134" y="61"/>
      <point x="127" y="76"/>
    </contour>
    <contour>
      <point x="345" y="76" type="curve" smooth="yes"/>
      <point x="330" y="76"/>
      <point x="325" y="61"/>
      <point x="325" y="47" type="curve" smooth="yes"/>
      <point x="325" y="30"/>
      <point x="334" y="18"/>
      <point x="346" y="18" type="curve" smooth="yes"/>
      <point x="360" y="18"/>
      <point x="366" y="30"/>
      <point x="366" y="47" type="curve" smooth="yes"/>
      <point x="366" y="61"/>
      <point x="359" y="76"/>
    </contour>
    <contour>
      <point x="578" y="76" type="curve" smooth="yes"/>
      <point x="563" y="76"/>
      <point x="558" y="61"/>
      <point x="558" y="47" type="curve" smooth="yes"/>
      <point x="558" y="30"/>
      <point x="567" y="18"/>
      <point x="579" y="18" type="curve" smooth="yes"/>
      <point x="593" y="18"/>
      <point x="599" y="30"/>
      <point x="599" y="47" type="curve" smooth="yes"/>
      <point x="599" y="61"/>
      <point x="592" y="76"/>
    </contour>
  </outline>
</glyph>
<glyph name="perthousand" format="1">
  <advance width="1133"/>
  <unicode hex="2030"/>
  <outline>
    <contour>
      <point x="931" y="285" type="curve" smooth="yes"/>
      <point x="867" y="285"/>
      <point x="822" y="228"/>
      <point x="822" y="148" type="curve" smooth="yes"/>
      <point x="822" y="75"/>
      <point x="868" y="13"/>
      <point x="931" y="13" type="curve" smooth="yes"/>
      <point x="1000" y="13"/>
      <point x="1039" y="75"/>
      <point x="1039" y="149" type="curve" smooth="yes"/>
      <point x="1039" y="228"/>
      <point x="991" y="285"/>
    </contour>
    <contour>
      <point x="550" y="508" type="move"/>
      <point x="267" y="23" type="line"/>
    </contour>
    <contour>
      <point x="203" y="515" type="curve" smooth="yes"/>
      <point x="139" y="515"/>
      <point x="94" y="458"/>
      <point x="94" y="378" type="curve" smooth="yes"/>
      <point x="94" y="305"/>
      <point x="140" y="243"/>
      <point x="203" y="243" type="curve" smooth="yes"/>
      <point x="272" y="243"/>
      <point x="311" y="305"/>
      <point x="311" y="379" type="curve" smooth="yes"/>
      <point x="311" y="458"/>
      <point x="263" y="515"/>
    </contour>
    <contour>
      <point x="612" y="285" type="curve" smooth="yes"/>
      <point x="548" y="285"/>
      <point x="503" y="228"/>
      <point x="503" y="148" type="curve" smooth="yes"/>
      <point x="503" y="75"/>
      <point x="549" y="13"/>
      <point x="612" y="13" type="curve" smooth="yes"/>
      <point x="681" y="13"/>
      <point x="720" y="75"/>
      <point x="720" y="149" type="curve" smooth="yes"/>
      <point x="720" y="228"/>
      <point x="672" y="285"/>
    </contour>
  </outline>
</glyph>
<glyph name="lessequal" format="1">
  <advance width="564"/>
  <unicode hex="2264"/>
  <outline>
    <contour>
      <point x="478" y="78" type="move"/>
      <point x="108" y="78" type="line"/>
    </contour>
    <contour>
      <point x="115" y="333" type="move"/>
      <point x="456" y="212" type="line"/>
    </contour>
    <contour>
      <point x="462" y="463" type="move"/>
      <point x="109" y="336" type="line"/>
    </contour>
  </outline>
</glyph>
<glyph name="brevecmb" format="1">
  <advance width="0"/>
  <outline>
    <contour>
      <point x="-113" y="577" type="move"/>
      <point x="-89" y="541"/>
      <point x="-53" y="516"/>
      <point x="-11" y="516" type="curve" smooth="yes"/>
      <point x="36" y="516"/>
      <point x="65" y="540"/>
      <point x="88" y="577" type="curve"/>
    </contour>
  </outline>
</glyph>
<glyph name="caroncmb" format="1">
  <advance width="0"/>
  <outline>
    <contour>
      <point x="-99" y="588" type="move"/>
      <point x="-73" y="562"/>
      <point x="-37" y="525"/>
      <point x="-13" y="501" type="curve"/>
    </contour>
    <contour>
      <point x="-7" y="501" type="move"/>
      <point x="16" y="524"/>
      <point x="53" y="562"/>
      <point x="79" y="588" type="curve"/>
    </contour>
  </outline>
</glyph>
<glyph name="cedillacmb" format="1">
  <advance width="0"/>
  <outline>
    <contour>
      <point x="-4" y="-123" type="move"/>
      <point x="-31" y="-149"/>
      <point x="-82" y="-200"/>
      <point x="-105" y="-223" type="curve"/>
    </contour>
  </outline>
</glyph>
<glyph name="circumflexcmb" format="1">
  <advance width="0"/>
  <outline>
    <contour>
      <point x="-7" y="593" type="move"/>
      <point x="-37" y="563"/>
      <point x="-69" y="532"/>
      <point x="-95" y="506" type="curve"/>
    </contour>
    <contour>
      <point x="87" y="506" type="move"/>
      <point x="61" y="532"/>
      <point x="30" y="563"/>
      <point x="-1" y="593" type="curve"/>
    </contour>
  </outline>
</glyph>
<glyph name="commaaccentcmb" format="1">
  <advance width="0"/>
  <outline>
    <contour>
      <point x="-87" y="-104" type="move"/>
      <point x="-81" y="-115"/>
      <point x="-78" y="-128"/>
      <point x="-78" y="-141" type="curve" smooth="yes"/>
      <point x="-78" y="-179"/>
      <point x="-108" y="-213"/>
      <point x="-155" y="-235" type="curve"/>
    </contour>
  </outline>
</glyph>
<glyph name="dieresiscmb" format="1">
  <advance width="0"/>
  <outline>
    <contour>
      <point x="-101" y="567" type="curve" smooth="yes"/>
      <point x="-112" y="567"/>
      <point x="-118" y="554"/>
      <point x="-118" y="541" type="curve" smooth="yes"/>
      <point x="-118" y="528"/>
      <point x="-112" y="517"/>
      <point x="-101" y="517" type="curve" smooth="yes"/>
      <point x="-91" y="517"/>
      <point x="-85" y="528"/>
      <point x="-85" y="541" type="curve" smooth="yes"/>
      <point x="-85" y="554"/>
      <point x="-91" y="567"/>
    </contour>
    <contour>
      <point x="77" y="567" type="curve" smooth="yes"/>
      <point x="66" y="567"/>
      <point x="60" y="554"/>
      <point x="60" y="541" type="curve" smooth="yes"/>
      <point x="60" y="528"/>
      <point x="66" y="517"/>
      <point x="77" y="517" type="curve" smooth="yes"/>
      <point x="87" y="517"/>
      <point x="93" y="528"/>
      <point x="93" y="541" type="curve" smooth="yes"/>
      <point x="93" y="554"/>
      <point x="87" y="567"/>
    </contour>
  </outline>
</glyph>
<glyph name="dotaccentcmb" format="1">
  <advance width="0"/>
  <outline>
    <contour>
      <point x="-8" y="572" type="curve" smooth="yes"/>
      <point x="-20" y="572"/>
      <point x="-27" y="559"/>
      <point x="-27" y="546" type="curve" smooth="yes"/>
      <point x="-27" y="533"/>
      <point x="-20" y="522"/>
      <point x="-8" y="522" type="curve" smooth="yes"/>
      <point x="3" y="522"/>
      <point x="9" y="533"/>
      <point x="9" y="546" type="curve" smooth="yes"/>
      <point x="9" y="559"/>
      <point x="3" y="572"/>
    </contour>
  </outline>
</glyph>
<glyph name="fi" format="1">
  <advance width="534"/>
  <outline>
    <contour>
      <point x="270" y="560" type="move"/>
      <point x="166" y="554"/>
      <point x="134" y="508"/>
      <point x="134" y="438" type="curve" smooth="yes"/>
      <point x="134" y="23" type="line"/>
    </contour>
    <contour>
      <point x="46" y="365" type="move"/>
      <point x="272" y="365" type="line"/>
    </contour>
    <contour>
      <point x="443" y="23" type="move"/>
      <point x="443" y="365" type="line"/>
    </contour>
    <contour>
      <point x="443" y="573" type="curve" smooth="yes"/>
      <point x="431" y="573"/>
      <point x="425" y="560"/>
      <point x="425" y="547" type="curve" smooth="yes"/>
      <point x="425" y="534"/>
      <point x="432" y="523"/>
      <point x="444" y="523" type="curve" smooth="yes"/>
      <point x="455" y="523"/>
      <point x="461" y="534"/>
      <point x="461" y="547" type="curve" smooth="yes"/>
      <point x="461" y="560"/>
      <point x="455" y="573"/>
    </contour>
  </outline>
</glyph>
<glyph name="fl" format="1">
  <advance width="560"/>
  <outline>
    <contour>
      <point x="270" y="560" type="move"/>
      <point x="166" y="554"/>
      <point x="134" y="508"/>
      <point x="134" y="438" type="curve" smooth="yes"/>
      <point x="134" y="23" type="line"/>
    </contour>
    <contour>
      <point x="46" y="365" type="move"/>
      <point x="272" y="365" type="line"/>
    </contour>
    <contour>
      <point x="444" y="23" type="move"/>
      <point x="444" y="534" type="line"/>
    </contour>
  </outline>
</glyph>
<glyph name="gravecmb" format="1">
  <advance width="0"/>
  <outline>
    <contour>
      <point x="-77" y="596" type="move"/>
      <point x="-50" y="561"/>
      <point x="-33" y="540"/>
      <point x="-8" y="501" type="curve"/>
    </contour>
  </outline>
</glyph>
<glyph name="ogonekcmb" format="1">
  <advance width="0"/>
  <outline>
    <contour>
      <point x="-20" y="19" type="move"/>
      <point x="-20" y="-16" type="line"/>
      <point x="-106" y="-86"/>
      <point x="-123" y="-114"/>
      <point x="-123" y="-141" type="curve" smooth="yes"/>
      <point x="-123" y="-176"/>
      <point x="-83" y="-201"/>
      <point x="-5" y="-201" type="curve"/>
    </contour>
  </outline>
</glyph>
<glyph name="tildecmb" format="1">
  <advance width="0"/>
  <outline>
    <contour>
      <point x="-120" y="520" type="move"/>
      <point x="-101" y="548"/>
      <point x="-80" y="568"/>
      <point x="-60" y="568" type="curve" smooth="yes"/>
      <point x="-42" y="568"/>
      <point x="-30" y="558"/>
      <point x="-8" y="541" type="curve" smooth="yes"/>
      <point x="12" y="526"/>
      <point x="27" y="516"/>
      <point x="44" y="516" type="curve" smooth="yes"/>
      <point x="65" y="516"/>
      <point x="81" y="534"/>
      <point x="101" y="564" type="curve"/>
    </contour>
  </outline>
</glyph>
<glyph name="uni0122" format="1">
  <advance width="618"/>
  <outline>
    <contour>
      <point x="481" y="490" type="move"/>
      <point x="439" y="506"/>
      <point x="391" y="517"/>
      <point x="335" y="517" type="curve" smooth="yes"/>
      <point x="191" y="517"/>
      <point x="86" y="415"/>
      <point x="86" y="262" type="curve" smooth="yes"/>
      <point x="86" y="124"/>
      <point x="176" y="14"/>
      <point x="332" y="14" type="curve" smooth="yes"/>
      <point x="409" y="14"/>
      <point x="465" y="34"/>
      <point x="511" y="63" type="curve"/>
      <point x="511" y="63"/>
    </contour>
    <contour>
      <point x="512" y="73" type="move"/>
      <point x="512" y="247" type="line"/>
    </contour>
    <contour>
      <point x="501" y="247" type="move"/>
      <point x="348" y="247" type="line"/>
    </contour>
    <contour>
      <point x="333" y="-104" type="move"/>
      <point x="339" y="-115"/>
      <point x="342" y="-128"/>
      <point x="342" y="-141" type="curve" smooth="yes"/>
      <point x="342" y="-179"/>
      <point x="312" y="-213"/>
      <point x="265" y="-235" type="curve"/>
    </contour>
  </outline>
</glyph>
<glyph name="uni0123" format="1">
  <advance width="503"/>
  <outline>
    <contour>
      <point x="393" y="328" type="move"/>
      <point x="341" y="353"/>
      <point x="306" y="365"/>
      <point x="250" y="365" type="curve" smooth="yes"/>
      <point x="161" y="365"/>
      <point x="74" y="295"/>
      <point x="74" y="185" type="curve" smooth="yes"/>
      <point x="74" y="80"/>
      <point x="145" y="35"/>
      <point x="216" y="35" type="curve" smooth="yes"/>
      <point x="282" y="35"/>
      <point x="348" y="72"/>
      <point x="392" y="142" type="curve"/>
    </contour>
    <contour>
      <point x="162" y="-158" type="move"/>
      <point x="322" y="-158"/>
      <point x="393" y="-68"/>
      <point x="393" y="69" type="curve" smooth="yes"/>
      <point x="393" y="365" type="line"/>
    </contour>
    <contour>
      <point x="267" y="507" type="move"/>
      <point x="261" y="518"/>
      <point x="258" y="531"/>
      <point x="258" y="544" type="curve" smooth="yes"/>
      <point x="258" y="582"/>
      <point x="288" y="616"/>
      <point x="335" y="638" type="curve"/>
    </contour>
  </outline>
</glyph>
<glyph name="uni0136" format="1">
  <advance width="553"/>
  <outline>
    <contour>
      <point x="123" y="508" type="move"/>
      <point x="123" y="23" type="line"/>
    </contour>
    <contour>
      <point x="247" y="301" type="move"/>
      <point x="304" y="232"/>
      <point x="424" y="86"/>
      <point x="479" y="23" type="curve"/>
    </contour>
    <contour>
      <point x="123" y="191" type="move"/>
      <point x="171" y="235"/>
      <point x="359" y="403"/>
      <point x="459" y="508" type="curve"/>
    </contour>
    <contour>
      <point x="279" y="-84" type="move"/>
      <point x="285" y="-95"/>
      <point x="288" y="-108"/>
      <point x="288" y="-121" type="curve" smooth="yes"/>
      <point x="288" y="-159"/>
      <point x="258" y="-193"/>
      <point x="211" y="-215" type="curve"/>
    </contour>
  </outline>
</glyph>
<glyph name="uni0137" format="1">
  <advance width="473"/>
  <outline>
    <contour>
      <point x="110" y="23" type="move"/>
      <point x="110" y="534" type="line"/>
    </contour>
    <contour>
      <point x="234" y="249" type="move"/>
      <point x="395" y="23" type="line"/>
    </contour>
    <contour>
      <point x="382" y="365" type="move"/>
      <point x="112" y="153" type="line"/>
    </contour>
    <contour>
      <point x="243" y="-84" type="move"/>
      <point x="249" y="-95"/>
      <point x="252" y="-108"/>
      <point x="252" y="-121" type="curve" smooth="yes"/>
      <point x="252" y="-159"/>
      <point x="222" y="-193"/>
      <point x="175" y="-215" type="curve"/>
    </contour>
  </outline>
</glyph>
<glyph name="uni0145" format="1">
  <advance width="635"/>
  <outline>
    <contour>
      <point x="123" y="508" type="move"/>
      <point x="123" y="23" type="line"/>
    </contour>
    <contour>
      <point x="512" y="508" type="move"/>
      <point x="512" y="23" type="line"/>
    </contour>
    <contour>
      <point x="129" y="508" type="move"/>
      <point x="204" y="408"/>
      <point x="399" y="166"/>
      <point x="506" y="23" type="curve"/>
    </contour>
    <contour>
      <point x="315" y="-94" type="move"/>
      <point x="321" y="-105"/>
      <point x="324" y="-118"/>
      <point x="324" y="-131" type="curve" smooth="yes"/>
      <point x="324" y="-169"/>
      <point x="294" y="-203"/>
      <point x="247" y="-225" type="curve"/>
    </contour>
  </outline>
</glyph>
<glyph name="uni0146" format="1">
  <advance width="497"/>
  <outline>
    <contour>
      <point x="110" y="23" type="move"/>
      <point x="110" y="365" type="line"/>
    </contour>
    <contour>
      <point x="397" y="23" type="move"/>
      <point x="397" y="223" type="line" smooth="yes"/>
      <point x="397" y="328"/>
      <point x="349" y="365"/>
      <point x="285" y="365" type="curve" smooth="yes"/>
      <point x="222" y="365"/>
      <point x="162" y="326"/>
      <point x="114" y="278" type="curve"/>
    </contour>
    <contour>
      <point x="254" y="-94" type="move"/>
      <point x="260" y="-105"/>
      <point x="263" y="-118"/>
      <point x="263" y="-131" type="curve" smooth="yes"/>
      <point x="263" y="-169"/>
      <point x="233" y="-203"/>
      <point x="186" y="-225" type="curve"/>
    </contour>
  </outline>
</glyph>
<glyph name="uni0156" format="1">
  <advance width="541"/>
  <outline>
    <contour>
      <point x="139" y="222" type="move"/>
      <point x="270" y="222" type="line" smooth="yes"/>
      <point x="381" y="222"/>
      <point x="436" y="287"/>
      <point x="436" y="365" type="curve" smooth="yes"/>
      <point x="436" y="449"/>
      <point x="370" y="508"/>
      <point x="270" y="508" type="curve" smooth="yes"/>
      <point x="123" y="508" type="line"/>
      <point x="123" y="23" type="line"/>
    </contour>
    <contour>
      <point x="299" y="216" type="move"/>
      <point x="464" y="23" type="line"/>
    </contour>
    <contour>
      <point x="270" y="-104" type="move"/>
      <point x="276" y="-115"/>
      <point x="279" y="-128"/>
      <point x="279" y="-141" type="curve" smooth="yes"/>
      <point x="279" y="-179"/>
      <point x="249" y="-213"/>
      <point x="202" y="-235" type="curve"/>
    </contour>
  </outline>
</glyph>
<glyph name="uni0157" format="1">
  <advance width="348"/>
  <outline>
    <contour>
      <point x="110" y="23" type="move"/>
      <point x="110" y="365" type="line"/>
    </contour>
    <contour>
      <point x="111" y="234" type="move"/>
      <point x="158" y="307"/>
      <point x="214" y="354"/>
      <point x="302" y="365" type="curve"/>
    </contour>
    <contour>
      <point x="108" y="-104" type="move"/>
      <point x="114" y="-115"/>
      <point x="117" y="-128"/>
      <point x="117" y="-141" type="curve" smooth="yes"/>
      <point x="117" y="-179"/>
      <point x="87" y="-213"/>
      <point x="40" y="-235" type="curve"/>
    </contour>
  </outline>
</glyph>
<glyph name="uni0162" format="1">
  <advance width="546"/>
  <outline>
    <contour>
      <point x="271" y="508" type="move"/>
      <point x="271" y="23" type="line"/>
    </contour>
    <contour>
      <point x="59" y="508" type="move"/>
      <point x="487" y="508" type="line"/>
    </contour>
    <contour>
      <point x="269" y="-104" type="move"/>
      <point x="275" y="-115"/>
      <point x="278" y="-128"/>
      <point x="278" y="-141" type="curve" smooth="yes"/>
      <point x="278" y="-179"/>
      <point x="248" y="-213"/>
      <point x="201" y="-235" type="curve"/>
    </contour>
  </outline>
</glyph>
<glyph name="uni0163" format="1">
  <advance width="354"/>
  <outline>
    <contour>
      <point x="134" y="491" type="move"/>
      <point x="134" y="140" type="line" smooth="yes"/>
      <point x="134" y="66"/>
      <point x="178" y="25"/>
      <point x="279" y="23" type="curve"/>
    </contour>
    <contour>
      <point x="46" y="365" type="move"/>
      <point x="292" y="365" type="line"/>
    </contour>
    <contour>
      <point x="202" y="-104" type="move"/>
      <point x="208" y="-115"/>
      <point x="211" y="-128"/>
      <point x="211" y="-141" type="curve" smooth="yes"/>
      <point x="211" y="-179"/>
      <point x="181" y="-213"/>
      <point x="134" y="-235" type="curve"/>
    </contour>
  </outline>
</glyph>
<glyph name="uni2219" format="1">
  <advance width="225"/>
  <outline>
    <contour>
      <point x="113" y="247" type="curve" smooth="yes"/>
      <point x="98" y="247"/>
      <point x="93" y="232"/>
      <point x="93" y="218" type="curve" smooth="yes"/>
      <point x="93" y="201"/>
      <point x="102" y="189"/>
      <point x="114" y="189" type="curve" smooth="yes"/>
      <point x="128" y="189"/>
      <point x="134" y="201"/>
      <point x="134" y="218" type="curve" smooth="yes"/>
      <point x="134" y="232"/>
      <point x="127" y="247"/>
    </contour>
  </outline>
</glyph>
